<?xml version="1.0" standalone="no"?>
<!DOCTYPE svg PUBLIC "-//W3C//DTD SVG 20010904//EN"
 "http://www.w3.org/TR/2001/REC-SVG-20010904/DTD/svg10.dtd">
<svg version="1.0" xmlns="http://www.w3.org/2000/svg"
 width="338.000000pt" height="340.000000pt" viewBox="0 0 338.000000 340.000000"
 preserveAspectRatio="xMidYMid meet">

<g transform="translate(0.000000,340.000000) scale(0.100000,-0.100000)"
fill="#000000" stroke="none">
<path d="M2404 2509 c-18 -5 -46 -25 -63 -45 l-32 -36 -31 31 c-62 61 -136 59
-202 -5 l-37 -36 -24 27 c-58 62 -137 65 -197 9 l-28 -28 -28 28 c-44 41 -93
51 -145 28 -42 -19 -97 -72 -97 -95 0 -7 -14 9 -31 35 -23 35 -42 51 -75 64
-41 16 -47 16 -89 -1 -27 -10 -56 -31 -71 -51 -15 -19 -29 -34 -33 -34 -4 0
-13 16 -20 35 -17 47 -55 75 -103 75 -54 0 -102 -24 -130 -66 -13 -18 -25 -34
-28 -34 -3 0 -12 13 -21 29 -24 41 -96 73 -147 65 -110 -18 -170 -173 -107
-280 17 -29 22 -45 14 -50 -8 -4 -9 -45 -4 -138 7 -134 16 -166 41 -145 11 9
13 39 10 135 l-4 124 195 0 196 0 -49 -50 c-68 -70 -79 -94 -78 -170 1 -50 8
-80 32 -130 81 -172 83 -295 6 -380 -61 -67 -144 -63 -163 8 -11 39 -2 65 29
82 50 27 -5 78 -66 61 -47 -12 -69 -54 -67 -122 5 -179 174 -227 324 -92 107
97 115 292 19 504 -59 132 -49 178 54 244 76 48 110 55 170 34 97 -36 123 -82
138 -252 11 -129 24 -161 55 -141 9 6 20 23 24 38 13 46 51 94 91 112 46 21
58 13 58 -39 0 -91 33 -147 86 -147 31 0 34 17 12 78 -19 54 -41 339 -28 355
11 12 196 10 221 -4 22 -11 23 -13 5 -23 -45 -27 -58 -43 -63 -84 -6 -41 -4
-43 59 -104 36 -35 68 -73 72 -84 17 -56 -46 -108 -103 -84 -16 6 -32 17 -34
23 -2 7 -6 16 -8 22 -2 5 4 10 15 10 55 0 38 87 -18 93 -53 6 -86 -55 -72
-133 10 -52 72 -95 138 -95 67 0 123 36 137 87 24 85 7 132 -73 199 -25 21
-46 44 -46 51 0 23 60 46 103 39 71 -12 92 38 35 87 l-33 27 30 -6 c55 -13
125 -54 145 -87 31 -50 33 -87 15 -233 -9 -74 -14 -138 -11 -141 13 -13 54 17
60 44 20 77 62 123 115 123 17 0 21 -9 27 -62 11 -100 67 -135 127 -80 18 16
19 15 12 -23 -4 -22 -11 -56 -16 -75 -5 -19 -9 -64 -9 -100 0 -76 22 -130 69
-178 26 -26 40 -32 74 -32 23 0 49 5 57 11 13 8 10 13 -15 32 -104 77 -115
120 -80 302 30 150 30 159 8 180 -24 25 -79 13 -119 -26 -29 -28 -33 -29 -38
-13 -6 20 -2 128 10 243 4 45 2 75 -5 90 l-12 22 113 -3 c94 -3 112 -5 110
-18 -2 -8 -6 -65 -9 -127 -5 -94 -3 -116 11 -138 9 -14 23 -25 31 -25 30 0 37
50 30 212 -5 112 -4 176 5 221 7 35 10 80 6 101 -8 44 -78 121 -119 131 -40
11 -92 -2 -127 -32 l-31 -26 -22 21 c-23 21 -69 43 -90 41 -7 0 -26 -5 -43
-10z m340 -65 c31 -32 50 -95 41 -140 -8 -46 -22 -51 -56 -18 -38 36 -37 44 6
44 19 0 35 3 35 8 0 4 -30 29 -65 56 -66 50 -75 60 -52 69 31 13 66 5 91 -19z
m-1621 -5 c64 -33 87 -84 66 -144 -16 -44 -38 -50 -132 -39 l-72 9 -3 34 c-6
65 6 101 41 116 18 8 28 14 22 15 -17 1 19 20 38 20 10 0 28 -5 40 -11z m295
-12 c17 -18 20 -30 15 -61 -4 -26 -12 -40 -25 -44 -15 -3 -16 -7 -7 -18 17
-20 2 -31 -21 -16 -28 17 -40 15 -40 -7 0 -24 -20 -38 -30 -21 -6 9 -12 9 -29
1 -17 -10 -22 -9 -26 4 -3 8 -7 22 -10 31 -9 28 16 96 45 126 37 37 96 39 128
5z m985 -138 c-4 -4 -6 24 -3 64 l5 72 3 -64 c2 -35 -1 -68 -5 -72z m77 97 c0
-3 -4 -8 -10 -11 -5 -3 -10 -1 -10 4 0 6 5 11 10 11 6 0 10 -2 10 -4z m-645
-84 c-5 -32 -9 -41 -16 -31 -12 19 -11 52 3 86 9 23 12 25 16 9 2 -10 1 -39
-3 -64z m823 61 c2 -8 -5 -13 -17 -13 -12 0 -21 6 -21 16 0 18 31 15 38 -3z
m-690 -11 c2 -7 -3 -12 -12 -12 -9 0 -16 7 -16 16 0 17 22 14 28 -4z m206 6
c-5 -7 -7 -26 -6 -42 2 -25 0 -27 -13 -16 -15 13 -20 51 -8 63 12 12 35 8 27
-5z m-247 -47 c16 -10 15 -11 -7 -9 -20 2 -25 9 -27 33 -2 27 -2 27 7 8 5 -12
17 -26 27 -32z m573 18 c0 -14 -7 -19 -25 -19 -26 0 -33 18 -14 37 16 16 39 5
39 -18z m-855 -35 c13 -3 29 -3 36 2 8 4 9 3 5 -4 -11 -18 -41 -14 -66 6 -16
13 -20 23 -14 33 7 11 10 9 12 -8 2 -14 13 -25 27 -29z m62 24 c-3 -8 -6 -5
-6 6 -1 11 2 17 5 13 3 -3 4 -12 1 -19z m-47 -8 c0 -5 -2 -10 -4 -10 -3 0 -8
5 -11 10 -3 6 -1 10 4 10 6 0 11 -4 11 -10z m1003 -12 c6 -19 -3 -38 -18 -38
-18 0 -28 17 -21 35 7 18 33 20 39 3z m-245 -48 c11 -18 10 -20 -8 -20 -13 0
-20 7 -20 20 0 11 3 20 8 20 4 0 13 -9 20 -20z m-98 -15 c0 -9 -9 -15 -21 -15
-18 0 -19 2 -9 15 7 8 16 15 21 15 5 0 9 -7 9 -15z m245 5 c3 -5 1 -10 -4 -10
-6 0 -11 5 -11 10 0 6 2 10 4 10 3 0 8 -4 11 -10z m-1040 -38 c-22 -5 -27 1
-19 23 7 17 8 17 21 -1 12 -17 12 -19 -2 -22z m958 31 c-7 -2 -19 -2 -25 0 -7
3 -2 5 12 5 14 0 19 -2 13 -5z m-1528 -23 c3 -5 1 -10 -4 -10 -6 0 -11 5 -11
10 0 6 2 10 4 10 3 0 8 -4 11 -10z m1526 -49 c12 -1 6 -12 -21 -40 -21 -21
-47 -60 -59 -85 -13 -25 -26 -46 -30 -46 -3 0 -12 23 -19 52 -7 32 -23 64 -42
83 -16 17 -30 33 -30 36 0 5 148 5 201 0z m-881 -25 c0 -3 -16 -35 -35 -73
-19 -37 -35 -74 -35 -80 0 -34 -18 -6 -32 50 -9 34 -19 72 -23 85 -7 21 -5 22
59 22 36 0 66 -2 66 -4z m90 -91 c0 -60 -1 -63 -27 -69 -16 -4 -36 -9 -46 -12
-17 -5 -17 -3 -4 28 36 84 60 127 68 122 5 -3 9 -34 9 -69z m786 -37 c-11 -60
-12 -63 -43 -65 l-32 -3 16 38 c18 43 51 92 62 92 5 0 3 -28 -3 -62z"/>
<path d="M1043 2373 c-7 -2 -12 -17 -12 -31 1 -21 2 -23 6 -7 3 11 10 26 15
33 11 13 10 13 -9 5z"/>
<path d="M1054 2339 c-7 -12 15 -31 31 -26 6 2 11 11 13 20 4 19 -32 24 -44 6z"/>
<path d="M1198 2063 c-17 -4 -26 -42 -10 -44 57 -5 76 -11 103 -33 39 -33 61
-21 35 18 -28 44 -86 71 -128 59z"/>
<path d="M1235 1970 c-7 -12 12 -40 26 -40 5 0 9 11 9 25 0 25 -23 35 -35 15z"/>
<path d="M2361 1568 c-20 -54 -60 -220 -72 -300 -7 -49 -16 -88 -19 -88 -3 0
-19 52 -34 115 -30 122 -54 162 -80 134 -7 -8 -30 -67 -51 -131 -21 -65 -40
-116 -42 -115 -3 4 -30 181 -39 262 -7 64 -23 105 -40 105 -17 0 -18 -46 -5
-152 5 -40 12 -129 15 -196 6 -134 19 -175 54 -180 25 -4 41 27 83 156 12 39
24 70 26 68 2 -1 12 -37 22 -79 30 -115 54 -157 94 -157 27 0 45 53 67 198 11
70 25 154 31 186 18 102 23 196 10 196 -6 0 -15 -10 -20 -22z"/>
<path d="M1338 1564 c-8 -7 0 -165 13 -289 13 -115 37 -234 51 -252 27 -33 82
3 93 61 22 110 69 285 75 279 7 -8 43 -181 56 -263 7 -52 19 -70 45 -70 19 0
24 11 34 75 4 22 20 110 36 195 37 196 40 253 17 258 -20 4 -35 -43 -69 -216
-12 -62 -25 -109 -29 -105 -4 4 -14 53 -24 107 -20 117 -33 150 -63 154 -17 3
-24 -4 -31 -30 -35 -118 -73 -239 -83 -264 -12 -28 -12 -27 -25 41 -8 39 -18
90 -23 115 -5 25 -14 72 -20 105 -17 90 -33 120 -53 99z"/>
<path d="M2791 1161 c-11 -7 -15 -33 -16 -98 l-1 -88 -77 3 c-83 4 -117 -8
-117 -39 0 -28 44 -42 117 -36 70 5 123 32 141 72 16 36 15 119 -2 160 -16 37
-22 40 -45 26z"/>
<path d="M701 1151 c-8 -5 -14 -42 -18 -102 -5 -84 -3 -97 15 -119 19 -23 26
-24 112 -24 67 0 94 4 100 14 14 23 -9 40 -55 40 -23 0 -57 3 -74 6 -29 6 -31
9 -31 51 0 47 -18 130 -29 138 -4 2 -13 0 -20 -4z"/>
</g>
</svg>
