<?xml version="1.0" standalone="no"?>
<!DOCTYPE svg PUBLIC "-//W3C//DTD SVG 20010904//EN"
 "http://www.w3.org/TR/2001/REC-SVG-20010904/DTD/svg10.dtd">
<svg version="1.0" xmlns="http://www.w3.org/2000/svg"
 width="338.000000pt" height="340.000000pt" viewBox="0 0 338.000000 340.000000"
 preserveAspectRatio="xMidYMid meet">

<g transform="translate(0.000000,340.000000) scale(0.100000,-0.100000)"
fill="#000000" stroke="none">
<path d="M1585 3180 c-331 -38 -634 -182 -877 -418 -227 -221 -377 -501 -434
-812 -24 -131 -24 -391 0 -520 57 -308 196 -572 420 -796 182 -181 345 -283
581 -363 172 -58 278 -74 475 -75 194 0 298 16 471 74 234 77 404 184 585 364
224 225 354 468 416 779 31 158 31 396 0 554 -62 312 -205 576 -430 795 -213
207 -466 340 -755 398 -118 24 -333 33 -452 20z m533 -159 c134 -28 246 -69
364 -135 97 -53 253 -165 244 -174 -3 -2 -47 22 -98 55 -51 33 -104 65 -118
72 -30 14 -26 10 96 -70 95 -62 174 -125 174 -139 0 -12 -40 -7 -67 8 -13 7
-23 19 -23 27 0 13 -25 31 -170 123 -36 22 -71 47 -79 53 -8 7 -30 14 -50 16
-20 2 -41 5 -47 7 -6 2 -17 1 -24 -4 -9 -5 1 -14 32 -28 25 -11 71 -36 102
-56 60 -38 72 -43 60 -24 -4 7 -3 8 5 4 6 -4 9 -11 6 -16 -3 -4 16 -22 42 -38
48 -30 69 -48 153 -125 71 -66 150 -159 150 -176 0 -10 -25 9 -58 44 -117 121
-217 205 -243 205 -10 -1 -8 -5 6 -16 120 -89 148 -117 235 -232 86 -114 171
-275 214 -402 31 -95 58 -275 54 -366 -3 -63 -5 -69 -25 -72 -18 -3 -23 2 -23
18 0 12 -5 18 -10 15 -6 -3 -13 2 -16 12 -4 10 -17 41 -30 70 -13 28 -24 58
-24 65 0 21 -38 160 -69 257 -18 53 -28 103 -27 131 2 25 -2 54 -8 65 -6 11
-9 25 -7 30 10 27 6 75 -6 75 -7 0 -10 -6 -7 -13 3 -8 -1 -14 -9 -14 -7 0 -14
6 -14 14 0 7 4 13 8 13 4 0 6 11 5 25 -1 33 -48 51 -71 29 -8 -9 -15 -20 -15
-25 0 -23 -27 -2 -117 91 -116 122 -193 181 -321 247 -123 64 -218 94 -364
118 -70 11 -283 6 -359 -9 -90 -18 -224 -65 -285 -101 -69 -40 -52 -38 40 6
133 64 239 90 396 96 205 8 370 -26 546 -113 94 -46 230 -140 274 -189 25 -28
25 -28 -25 4 l-50 33 59 -53 c33 -30 86 -87 118 -127 l58 -73 -16 -37 c-38
-89 -114 -292 -114 -307 0 -25 30 -64 45 -59 8 3 11 12 8 20 -3 8 1 14 11 14
9 0 18 12 22 28 10 47 26 82 38 82 7 0 7 3 -1 8 -7 4 11 8 40 7 28 0 52 -4 53
-10 0 -5 6 -23 12 -38 7 -16 15 -47 19 -69 5 -38 7 -39 15 -18 5 12 6 31 3 41
-4 11 -2 19 4 19 35 0 76 -338 53 -440 l-8 -35 -74 3 c-228 9 -458 -114 -539
-288 -26 -56 -84 -131 -113 -146 -37 -19 -91 -18 -118 4 -15 12 -24 33 -27 63
-5 41 -2 50 26 81 17 20 31 40 31 46 0 30 -140 43 -189 18 -38 -20 -83 -73
-112 -132 -18 -37 -24 -66 -24 -119 0 -89 7 -113 51 -170 19 -26 34 -48 32
-48 -2 -1 -22 -19 -44 -40 -36 -33 -44 -37 -67 -28 -16 6 -33 26 -45 53 -29
65 -66 104 -134 137 -70 36 -126 40 -189 15 -49 -20 -59 -12 -59 54 0 69 26
105 92 125 30 10 87 -13 105 -41 9 -15 18 -29 20 -31 2 -2 15 2 29 9 37 20 64
80 64 140 0 53 -24 115 -40 105 -6 -3 -7 0 -4 8 3 9 -11 22 -39 37 -41 22 -49
23 -109 13 -67 -11 -141 -4 -161 16 -7 7 -12 29 -12 49 0 32 -3 37 -26 40 -36
4 -83 -37 -98 -87 -13 -45 -41 -66 -77 -57 -51 13 -77 135 -40 190 9 15 14 32
10 38 -4 6 -3 8 3 5 5 -3 22 3 39 14 16 10 44 19 62 19 29 0 32 3 32 30 0 33
-36 75 -78 91 -43 16 -139 10 -186 -12 -86 -40 -181 -146 -200 -221 -3 -15
-11 -39 -16 -53 l-10 -26 -25 25 c-31 31 -67 50 -121 65 -39 11 -42 13 -48 57
-3 26 -6 102 -6 170 l0 123 32 17 c41 21 105 20 129 -2 37 -33 15 -104 -32
-104 -27 0 -24 -27 4 -34 57 -14 134 32 166 97 38 79 25 157 -34 213 -20 19
-33 39 -29 47 11 29 80 57 138 57 117 0 176 -72 131 -160 -14 -27 -14 -30 4
-40 28 -15 68 -12 108 7 38 17 76 69 68 91 -3 7 0 10 5 7 22 -14 14 116 -10
171 -24 56 -96 127 -121 121 -10 -3 -17 -2 -15 2 3 4 -26 17 -64 29 -76 25
-89 36 -96 84 -4 24 0 40 15 59 27 35 77 43 96 16 16 -23 45 -16 45 11 0 10
-9 35 -20 57 l-20 39 33 35 c17 19 23 29 12 21 -11 -8 -24 -21 -28 -27 -11
-18 -30 -16 -48 5 -8 9 -27 27 -43 39 -21 17 -26 27 -21 40 5 10 7 22 6 26 -1
5 3 6 9 2 6 -4 26 7 45 24 37 32 199 131 216 131 5 0 22 9 37 19 35 26 222 87
342 112 188 40 413 40 608 0z m-1220 -417 c12 -14 20 -30 17 -35 -4 -5 1 -9 9
-9 9 0 16 -4 16 -9 0 -13 -28 -22 -35 -11 -8 13 -79 -35 -93 -63 -11 -23 -15
-46 -13 -83 2 -40 51 -79 127 -102 94 -29 134 -57 164 -117 33 -66 35 -160 4
-202 -24 -32 -69 -57 -89 -49 -11 4 -12 11 -3 36 15 45 -4 101 -45 132 -88 67
-198 63 -279 -10 -38 -35 -44 -37 -97 -34 -31 2 -59 7 -64 11 -4 4 18 32 50
61 45 41 54 55 41 58 -23 4 -80 -36 -72 -50 4 -6 2 -8 -4 -4 -9 5 -31 -18 -69
-73 -2 -2 -5 -2 -8 0 -5 6 16 77 40 134 41 98 175 322 237 399 l69 85 37 -20
c20 -11 47 -31 60 -45z m1942 -439 c0 -14 -4 -25 -10 -25 -11 0 -14 33 -3 43
11 11 13 8 13 -18z m-72 -32 c2 -15 -4 -23 -18 -28 -29 -9 -33 -3 -20 29 11
31 33 30 38 -1z m-2148 -123 c80 -22 134 -112 111 -183 -13 -39 -47 -87 -62
-87 -5 0 -9 18 -9 41 0 85 -93 126 -183 80 -26 -13 -39 -16 -44 -8 -11 17 -7
102 6 125 19 36 110 52 181 32z m2278 -142 c33 -102 51 -281 36 -357 -13 -62
-24 -17 -24 97 0 67 -7 147 -16 187 -22 102 -27 135 -21 135 3 0 14 -28 25
-62z m-2458 -220 c0 -73 1 -142 3 -153 1 -12 -4 -20 -13 -20 -19 0 -28 59 -29
190 -1 68 2 95 9 85 8 -12 10 -11 10 8 0 12 4 22 10 22 6 0 10 -54 10 -132z
m628 -8 c41 -25 38 -38 -12 -55 -48 -17 -71 -38 -96 -89 -36 -75 -21 -183 31
-220 57 -40 128 -6 158 75 19 50 51 66 51 26 0 -29 47 -73 88 -84 14 -3 61 -2
105 3 113 14 154 -12 171 -108 12 -65 -41 -154 -61 -103 -8 23 -57 45 -100 45
-105 0 -176 -106 -144 -216 10 -35 0 -60 -21 -51 -19 7 -38 74 -38 133 0 57
29 128 59 144 24 12 28 40 6 40 -23 0 -74 -59 -87 -102 -6 -21 -13 -38 -15
-38 -2 0 -17 13 -34 30 -80 76 -222 40 -312 -81 -24 -32 -38 -89 -40 -162 -1
-38 -7 -62 -14 -65 -8 -2 -14 7 -15 25 0 15 -2 33 -2 40 -1 6 -25 39 -54 73
l-53 63 29 18 c96 58 121 192 51 269 -30 32 -31 37 -27 102 6 82 41 159 101
219 83 83 202 113 275 69z m-610 -233 c3 -23 0 -28 -15 -25 -11 2 -19 14 -21
31 -3 23 0 28 15 25 11 -2 19 -14 21 -31z m2419 19 c4 -3 2 -27 -3 -54 l-9
-47 -83 -7 c-104 -8 -197 -38 -270 -86 -13 -8 -50 -16 -85 -17 -34 -1 -70 -5
-79 -10 -34 -14 -18 14 40 73 73 75 186 130 322 156 33 6 159 0 167 -8z
m-2351 -11 c75 -31 124 -88 124 -143 0 -22 6 -35 18 -39 55 -20 74 -78 47
-148 -16 -44 -59 -85 -88 -85 -17 0 -85 144 -116 244 -19 62 -20 71 -6 78 22
13 18 27 -10 40 -18 8 -25 19 -25 40 0 32 7 34 56 13z m-40 -130 c6 -28 16
-62 22 -77 8 -20 8 -29 0 -34 -21 -13 -45 37 -64 135 -6 29 -4 33 12 29 13 -2
22 -18 30 -53z m2372 -16 c2 -9 -3 -23 -11 -31 -8 -8 -18 -29 -22 -46 -6 -30
-10 -32 -48 -32 -22 0 -60 -9 -84 -21 -26 -12 -53 -19 -66 -15 -12 3 -48 -2
-80 -11 -50 -14 -60 -14 -68 -2 -13 20 -12 24 17 59 29 34 91 68 169 93 95 30
188 33 193 6z m-853 -49 c4 -6 -1 -22 -10 -36 -19 -30 -22 -93 -5 -134 17 -40
55 -63 106 -62 66 2 109 25 149 80 19 28 51 62 69 76 32 24 112 50 127 40 4
-2 5 -21 2 -42 -7 -53 16 -76 69 -68 100 16 114 16 130 3 9 -7 18 -26 20 -41
l3 -29 -170 -1 c-189 -2 -288 -20 -415 -76 -83 -36 -97 -37 -112 -5 -6 14 -17
25 -25 25 -18 0 -17 -35 2 -50 23 -19 19 -42 -6 -38 -39 6 -64 53 -64 121 0
48 -4 62 -15 62 -27 0 -25 -106 2 -157 13 -24 23 -53 24 -66 1 -22 1 -22 -30
-4 -101 58 -101 271 0 363 45 41 134 64 149 39z m842 -107 c3 -7 -6 -41 -20
-75 -25 -63 -25 -63 -64 -61 -56 4 -63 9 -63 43 0 17 -7 45 -16 62 -9 16 -11
27 -6 24 6 -3 25 1 43 9 42 18 119 17 126 -2z m-2268 -69 c25 -42 26 -54 6
-54 -18 0 -43 48 -38 73 6 23 8 22 32 -19z m510 11 c37 -18 48 -45 20 -45 -28
0 -79 -53 -79 -83 0 -31 38 -88 70 -105 42 -22 119 -10 202 31 90 45 156 49
225 16 47 -23 113 -101 130 -154 7 -22 17 -31 42 -36 43 -9 100 -56 125 -105
25 -47 29 -179 7 -232 l-13 -32 -102 0 c-99 1 -147 14 -132 38 12 20 -18 88
-52 119 -75 69 -163 50 -235 -51 -13 -18 -15 -18 -60 -1 -26 10 -47 23 -47 29
0 23 58 104 79 111 24 7 29 35 6 35 -23 0 -91 -66 -106 -103 -7 -17 -14 -34
-15 -36 -4 -4 -119 59 -190 104 -37 24 -54 41 -54 56 0 14 -5 19 -19 17 -11
-2 -40 15 -71 41 l-51 43 19 22 c15 16 21 39 24 96 6 109 43 176 123 218 47
25 114 28 154 7z m1778 -5 c-3 -10 0 -21 7 -23 20 -7 -20 -77 -45 -77 -23 0
-21 17 12 83 21 40 35 49 26 17z m-1742 -80 c4 -6 13 -9 22 -8 11 2 19 -12 29
-47 20 -76 19 -78 -23 -72 -46 8 -85 46 -85 83 0 37 42 69 57 44z m1355 0 c0
-3 -27 -35 -61 -71 -33 -35 -73 -82 -88 -104 -48 -68 -113 -194 -106 -204 9
-16 33 -2 39 23 6 25 107 180 137 211 19 20 19 19 3 -34 -9 -30 -20 -65 -25
-78 -13 -36 -11 -63 6 -63 8 0 19 17 25 43 23 87 42 135 71 183 48 76 68 94
106 94 39 0 39 -4 14 -85 -10 -33 -24 -107 -31 -165 -6 -57 -14 -108 -16 -112
-7 -11 -155 -108 -165 -108 -5 0 -9 9 -9 20 0 36 -28 22 -35 -18 -6 -35 -12
-41 -70 -70 -34 -17 -65 -28 -68 -25 -3 2 -3 20 0 39 4 27 2 34 -11 34 -9 0
-18 -11 -21 -25 -3 -14 -7 -35 -10 -48 -3 -15 -17 -27 -42 -36 -48 -18 -142
-40 -169 -41 l-21 0 22 68 c45 136 124 267 244 400 44 49 103 106 131 127 27
20 48 40 46 43 -2 4 20 7 50 8 30 0 54 -2 54 -6z m-1836 -26 c5 -12 0 -15 -21
-12 -14 2 -28 9 -31 16 -6 18 45 15 52 -4z m2174 -29 c13 -12 -186 -255 -209
-255 -22 0 7 179 41 257 l18 42 74 -20 c40 -11 74 -22 76 -24z m-548 10 c0 -2
-20 -23 -45 -46 -25 -23 -42 -46 -38 -52 3 -5 1 -7 -4 -4 -13 8 -139 -149
-137 -169 1 -8 -2 -12 -6 -9 -11 7 -105 -189 -127 -262 -14 -48 -22 -63 -37
-63 -13 0 -16 5 -11 17 16 44 27 120 21 160 -7 50 -41 123 -58 123 -6 0 -8 3
-5 7 4 4 -4 19 -18 33 l-26 27 43 39 c24 21 42 42 40 47 -1 5 2 6 8 2 12 -8
42 20 32 30 -4 4 -2 6 3 5 22 -5 36 1 29 12 -4 7 -3 8 5 4 6 -4 23 1 39 12 26
19 115 62 126 62 19 0 -1 -23 -39 -46 -42 -24 -135 -117 -156 -157 -7 -13 -6
-19 7 -24 11 -4 20 1 27 13 5 10 35 43 66 73 31 30 55 58 53 63 -1 5 2 7 7 4
5 -3 21 4 36 16 30 23 145 87 158 88 4 0 7 -2 7 -5z m-1581 -80 c13 -20 21
-38 17 -42 -3 -3 -7 -4 -9 -2 -2 2 -15 19 -30 37 -15 19 -27 38 -27 42 0 18
25 -1 49 -35z m809 -391 c47 -33 70 -114 32 -114 -29 0 -193 41 -204 51 -6 5
5 23 27 44 30 29 43 35 79 35 24 0 54 -7 66 -16z"/>
<path d="M1948 3023 c7 -3 16 -2 19 1 4 3 -2 6 -13 5 -11 0 -14 -3 -6 -6z"/>
<path d="M1640 2920 c-25 -3 31 -7 130 -7 115 0 161 2 135 8 -46 9 -200 9
-265 -1z"/>
<path d="M1553 2903 c9 -2 23 -2 30 0 6 3 -1 5 -18 5 -16 0 -22 -2 -12 -5z"/>
<path d="M1430 2884 c-83 -18 -356 -153 -339 -168 2 -2 33 14 69 36 83 51 184
94 290 123 93 26 83 30 -20 9z"/>
<path d="M2440 2876 c0 -3 9 -10 20 -16 11 -6 20 -8 20 -6 0 3 -9 10 -20 16
-11 6 -20 8 -20 6z"/>
<path d="M1958 2863 c7 -3 16 -2 19 1 4 3 -2 6 -13 5 -11 0 -14 -3 -6 -6z"/>
<path d="M2380 2756 c0 -3 9 -10 20 -16 11 -6 20 -8 20 -6 0 3 -9 10 -20 16
-11 6 -20 8 -20 6z"/>
<path d="M2424 2240 c-37 -49 -69 -90 -72 -90 -5 0 6 111 15 147 4 20 2 22
-37 18 -23 -2 -45 -6 -48 -9 -7 -8 -49 -239 -64 -357 -13 -105 -9 -129 22
-129 24 0 44 42 34 73 -5 15 -3 19 9 14 10 -4 18 1 22 14 6 18 12 17 92 -26
47 -25 88 -44 91 -40 3 3 1 5 -5 5 -14 0 -57 39 -51 45 3 3 18 1 33 -5 32 -12
32 -12 37 18 2 20 -7 29 -64 59 l-68 35 42 61 c23 34 61 86 85 115 23 29 50
66 59 84 15 30 15 31 -4 26 -14 -4 -22 0 -25 13 -10 36 -36 18 -103 -71z"/>
<path d="M2040 2278 c0 -5 -4 -7 -9 -4 -5 3 -19 -20 -31 -52 -13 -31 -31 -75
-40 -97 -40 -92 -110 -273 -110 -284 0 -26 30 -70 45 -65 8 3 14 9 13 12 0 4
0 14 1 22 1 12 3 13 10 1 6 -10 11 -4 16 20 12 64 25 85 59 97 18 7 40 12 50
12 17 0 38 -38 28 -54 -3 -5 1 -6 8 -1 9 6 12 -1 8 -28 -2 -20 0 -33 4 -31 4
3 8 -4 8 -16 0 -13 4 -19 11 -14 6 3 9 17 6 30 -2 14 0 27 4 30 5 3 9 -1 10
-8 1 -7 5 -2 9 12 11 34 11 100 0 125 -7 15 -9 9 -7 -25 1 -25 -2 -45 -8 -45
-5 0 -11 24 -13 53 -2 41 0 52 13 52 19 0 21 68 2 95 -10 12 -12 30 -6 59 4
23 3 45 -2 51 -5 5 -9 1 -9 -13 0 -12 -5 -22 -11 -22 -7 0 -9 10 -7 25 3 14 1
28 -5 32 -6 4 -3 9 7 13 14 5 10 8 -18 17 -22 7 -36 7 -36 1z m13 -172 c-3
-13 0 -27 6 -30 6 -4 11 -13 11 -19 0 -7 -4 -6 -10 3 -8 12 -10 10 -10 -10 0
-20 -5 -26 -25 -28 -25 -2 -25 -1 -10 28 8 16 15 35 15 43 0 10 18 37 26 37 1
0 -1 -11 -3 -24z m67 -32 c0 -14 -4 -23 -10 -19 -5 3 -10 15 -10 26 0 10 5 19
10 19 6 0 10 -12 10 -26z"/>
<path d="M1766 2232 c-5 -8 -21 -104 -30 -177 -3 -22 -5 -40 -6 -40 -73 0 -85
2 -83 15 1 8 7 48 13 89 12 81 5 101 -35 101 -34 0 -46 -22 -56 -107 -5 -43
-14 -91 -20 -108 -16 -45 -21 -163 -8 -187 10 -18 9 -20 -5 -15 -10 4 -16 1
-16 -8 0 -8 5 -15 10 -15 6 0 10 -19 10 -42 l1 -43 24 30 c14 17 25 26 26 20
3 -21 17 52 18 91 1 51 24 80 70 89 l34 7 -6 -58 c-4 -33 -9 -81 -13 -109 -4
-33 -2 -45 4 -36 12 16 27 -3 18 -24 -3 -8 -1 -17 4 -20 13 -8 40 6 40 20 0 7
5 15 10 17 11 3 83 484 76 502 -2 6 -7 -1 -11 -16 -10 -37 -25 -36 -25 2 0 23
-5 30 -19 30 -11 0 -22 -4 -25 -8z"/>
<path d="M1325 2191 c-46 -28 -67 -56 -81 -110 -21 -83 2 -128 97 -182 32 -19
59 -37 59 -40 0 -14 -37 -37 -66 -41 -34 -5 -54 11 -54 42 0 11 -4 20 -10 20
-5 0 -9 -3 -7 -7 1 -5 -3 -8 -8 -8 -5 0 -10 7 -10 15 0 8 -10 16 -21 18 -17 2
-23 -4 -28 -29 -10 -54 -7 -73 18 -100 27 -30 112 -55 150 -45 30 7 106 81
106 103 0 13 -3 13 -15 3 -20 -17 -29 -7 -16 18 20 37 7 75 -35 104 -21 14
-51 39 -66 55 -26 28 -26 29 -10 63 20 42 55 54 52 18 -4 -41 0 -48 24 -48 31
0 69 51 73 97 2 29 -3 37 -30 53 -40 25 -83 25 -122 1z m33 -273 c7 -7 12 -9
12 -5 0 4 9 3 20 -3 16 -9 18 -8 14 5 -4 8 -1 15 5 15 13 0 15 -46 2 -54 -5
-3 -20 3 -34 14 -14 11 -30 20 -36 20 -6 0 -11 5 -11 10 0 14 13 13 28 -2z"/>
<path d="M1330 1663 c-51 -19 -66 -77 -30 -113 27 -27 62 -25 88 3 29 30 28
62 -3 92 -25 26 -30 27 -55 18z m44 -56 c9 -14 7 -21 -7 -32 -33 -24 -71 11
-46 42 15 18 39 13 53 -10z"/>
<path d="M2015 1460 c-22 -25 -22 -76 1 -101 39 -44 124 -9 124 51 0 59 -86
93 -125 50z m80 -26 c9 -10 13 -23 9 -33 -3 -9 -7 -21 -7 -27 0 -12 -35 -7
-54 9 -16 12 -17 39 -1 55 16 16 34 15 53 -4z"/>
<path d="M640 2420 c-6 -11 -8 -20 -6 -20 3 0 10 9 16 20 6 11 8 20 6 20 -3 0
-10 -9 -16 -20z"/>
<path d="M583 2328 c-12 -16 -24 -48 -18 -48 2 0 11 14 20 30 16 31 15 40 -2
18z"/>
<path d="M693 2230 c-28 -11 -30 -30 -4 -30 40 0 81 13 81 26 0 16 -42 18 -77
4z"/>
<path d="M788 1508 c-46 -83 -66 -180 -44 -216 14 -24 26 -1 26 52 0 39 8 69
29 111 17 33 28 62 25 67 -9 14 -23 9 -36 -14z"/>
<path d="M1715 590 c-3 -5 4 -23 16 -39 29 -39 36 -115 16 -163 -13 -31 -13
-39 -2 -48 39 -32 65 143 31 208 -18 35 -51 58 -61 42z"/>
</g>
</svg>
