<?xml version="1.0" standalone="no"?>
<!DOCTYPE svg PUBLIC "-//W3C//DTD SVG 20010904//EN"
 "http://www.w3.org/TR/2001/REC-SVG-20010904/DTD/svg10.dtd">
<svg version="1.0" xmlns="http://www.w3.org/2000/svg"
 width="338.000000pt" height="340.000000pt" viewBox="0 0 338.000000 340.000000"
 preserveAspectRatio="xMidYMid meet">

<g transform="translate(0.000000,340.000000) scale(0.100000,-0.100000)"
fill="#000000" stroke="none">
<path d="M1755 2642 c6 -6 24 -12 40 -15 17 -2 5 -5 -28 -6 -40 -1 -56 2 -51
10 7 12 -52 3 -71 -10 -5 -4 -55 -16 -110 -26 -55 -10 -104 -22 -110 -26 -5
-3 -53 -28 -105 -55 -161 -81 -319 -240 -382 -381 -10 -24 -16 -48 -13 -54 4
-6 1 -18 -7 -27 -8 -9 -25 -55 -38 -102 -31 -117 -38 -280 -16 -389 22 -107
65 -224 81 -218 6 3 20 -11 31 -31 10 -21 21 -39 24 -42 3 -3 18 -20 33 -38
17 -22 27 -28 27 -18 0 9 5 16 10 16 6 0 10 -9 10 -21 0 -11 4 -17 11 -14 5 4
43 -27 83 -69 40 -42 76 -76 79 -76 4 0 26 -13 49 -30 22 -16 46 -30 53 -30 7
0 23 -9 36 -21 14 -12 33 -19 46 -16 12 2 24 0 27 -5 2 -5 3 -3 2 3 -1 7 -12
14 -24 16 -34 5 -152 75 -152 90 0 7 -8 13 -17 13 -24 1 -94 66 -122 113 -13
20 -27 37 -31 37 -5 0 -14 9 -20 20 -17 32 -3 24 45 -26 25 -25 42 -50 39 -56
-3 -5 0 -8 7 -7 8 2 29 -5 47 -14 l33 -18 -6 53 c-4 29 -11 65 -17 80 -5 14
-8 37 -5 50 4 22 4 22 6 -3 1 -31 64 -95 82 -84 7 5 10 4 5 -3 -12 -20 11 -21
47 -2 21 11 37 16 37 11 0 -10 130 -71 153 -71 8 0 23 -7 32 -16 12 -13 19
-14 28 -5 6 6 21 11 33 11 18 0 26 9 37 47 10 32 15 40 16 25 2 -40 -29 -94
-50 -89 -10 3 -23 -1 -30 -9 -9 -11 -8 -14 5 -14 21 0 20 -6 -3 -31 -12 -13
-24 -18 -33 -13 -10 6 -10 4 1 -9 7 -9 10 -17 5 -17 -5 0 -4 -4 2 -8 6 -4 15
-17 19 -30 6 -22 5 -23 -32 -18 -21 3 -30 3 -20 0 9 -3 15 -9 12 -14 -3 -5
-13 -6 -22 -3 -10 4 -14 2 -10 -5 4 -6 20 -13 35 -17 39 -8 94 -43 87 -55 -3
-6 -21 -10 -38 -10 l-32 -1 36 -33 c29 -27 46 -34 96 -39 34 -4 72 -12 86 -18
21 -9 41 -8 104 10 44 11 89 21 101 21 12 0 63 23 113 51 50 27 93 48 96 46 4
-5 -114 -74 -232 -136 -59 -32 -2 -14 85 27 41 19 84 36 95 37 22 3 71 34 119
75 120 103 171 153 207 205 l42 60 -44 -43 c-147 -146 -219 -210 -240 -215
-18 -5 -13 3 21 30 224 181 345 422 357 713 5 116 -9 246 -34 318 -5 14 -3 13
11 -3 17 -20 17 -20 10 5 -4 14 -13 29 -20 33 -8 4 -14 13 -14 20 0 21 -81
170 -122 225 -121 161 -344 320 -494 353 -133 28 -252 44 -239 31z m150 -32
c14 -7 8 -8 -20 -3 -22 3 -42 7 -44 9 -9 8 45 2 64 -6z m-180 -332 c21 -29 40
-55 42 -57 2 -3 13 5 26 16 12 11 33 24 47 28 14 4 36 15 49 24 14 9 47 17 73
18 39 1 51 -3 63 -20 19 -27 19 -114 0 -147 -20 -34 -18 -43 4 -30 31 16 66
12 86 -10 10 -11 16 -22 13 -25 -3 -3 -13 4 -23 15 -26 28 -52 25 -70 -9 -8
-17 -20 -33 -26 -37 -6 -3 -3 6 7 22 l19 29 -26 -17 c-15 -9 -29 -15 -32 -12
-3 3 8 30 24 61 31 59 36 103 16 143 -11 21 -20 25 -61 26 -45 1 -49 -1 -78
-40 -19 -26 -28 -33 -23 -18 8 26 2 27 -35 5 -45 -26 -70 -82 -84 -191 -14
-108 -6 -328 14 -359 9 -15 10 -11 8 22 -2 28 1 39 10 37 6 -1 12 2 12 8 0 19
27 10 37 -12 8 -18 6 -35 -9 -72 -10 -27 -17 -54 -14 -60 2 -6 5 -4 5 5 1 22
27 43 36 29 10 -16 27 -1 20 19 -3 10 4 29 15 44 11 14 20 28 20 31 0 17 143
216 182 254 40 39 45 41 44 20 -1 -18 4 -23 24 -22 14 0 35 3 47 8 16 5 28 1
45 -17 32 -33 95 -67 124 -67 25 0 33 -23 13 -36 -8 -5 -8 -9 1 -14 8 -5 10
-24 5 -63 -11 -86 -43 -114 -188 -165 -65 -23 -159 -52 -209 -65 -50 -13 -87
-27 -81 -30 5 -3 68 -11 139 -17 118 -10 133 -9 183 9 63 22 77 19 86 -16 4
-18 1 -29 -12 -38 -10 -7 -20 -11 -23 -8 -3 2 3 9 13 15 17 9 17 11 2 29 -16
17 -20 17 -54 3 -51 -22 -248 -16 -363 11 -13 3 -28 2 -35 -2 -17 -12 0 -88
27 -126 23 -32 23 -32 1 -11 -12 11 -29 38 -37 60 l-15 39 5 -60 6 -60 -14 40
-13 40 -11 -41 c-15 -53 -71 -174 -71 -154 -1 8 10 38 23 66 25 53 47 139 45
177 0 15 -6 7 -16 -21 -8 -24 -17 -41 -19 -39 -3 2 0 16 6 31 19 52 10 51 -20
-1 -38 -66 -48 -70 -15 -6 30 55 20 68 -32 46 -19 -8 -32 -9 -28 -4 8 15 1 14
-42 -4 -45 -19 -52 -19 -27 1 18 14 17 15 -21 10 -55 -8 -150 -57 -224 -118
-34 -27 -64 -48 -67 -45 -5 5 68 67 123 105 17 12 60 33 94 46 53 20 58 24 38
29 -13 4 -76 4 -139 0 -126 -6 -167 4 -191 49 -11 20 -9 20 20 -5 37 -31 29
-30 216 -31 77 -1 156 -5 175 -10 32 -7 34 -6 16 8 -17 14 -16 15 20 10 l39
-5 -40 20 c-50 24 -43 26 19 5 54 -19 72 -13 28 10 -16 8 -94 79 -173 156
-162 159 -220 196 -290 187 -23 -3 -51 -15 -64 -27 -24 -22 -50 -103 -40 -121
4 -5 1 -9 -4 -9 -6 0 -11 -16 -11 -35 0 -29 6 -39 33 -56 27 -17 28 -19 7 -14
l-25 7 24 -26 c14 -14 19 -26 13 -26 -22 0 -51 38 -63 82 -6 24 -16 46 -21 49
-17 11 1 97 25 123 12 14 46 37 75 51 41 22 60 26 90 20 43 -8 108 -43 136
-74 11 -12 25 -21 33 -21 9 0 -1 27 -29 83 -38 74 -42 91 -46 169 -5 93 7 141
37 158 22 11 110 9 118 -3 4 -6 0 -8 -10 -4 -12 5 -17 1 -17 -14 0 -11 -11
-46 -25 -79 -29 -69 -30 -93 -10 -192 22 -105 83 -224 151 -292 31 -31 61 -56
67 -56 5 0 3 8 -5 18 -20 22 -78 126 -78 138 1 5 12 -12 26 -38 13 -27 29 -48
34 -48 15 0 13 5 -30 116 -22 56 -40 108 -40 116 1 7 17 -30 36 -82 20 -52 40
-99 46 -105 6 -6 7 -3 2 9 -8 22 13 38 35 26 14 -7 16 9 15 142 l-1 149 -37
73 c-35 72 -62 100 -115 117 l-26 9 28 -4 c21 -2 36 5 66 35 21 22 43 39 48
39 5 0 26 -24 48 -52z m262 -100 c-3 -8 -6 -5 -6 6 -1 11 2 17 5 13 3 -3 4
-12 1 -19z m-67 -118 c-18 -45 -34 -80 -36 -78 -2 2 11 45 29 96 18 51 33 86
35 78 2 -8 -11 -51 -28 -96z m-426 -141 c3 -13 -1 -8 -10 11 -9 19 -18 64 -20
100 l-4 65 14 -76 c8 -42 16 -87 20 -100z m195 131 c0 -10 -3 -8 -9 5 -12 27
-12 43 0 25 5 -8 9 -22 9 -30z m78 -187 c-2 -16 -4 -5 -4 22 0 28 2 40 4 28 2
-13 2 -35 0 -50z m-471 -16 c6 2 19 -6 30 -18 l19 -21 -45 18 c-25 9 -49 21
-55 26 -6 6 0 6 15 0 14 -5 30 -7 36 -5z m-6 -129 c10 -6 7 -7 -10 -2 -14 3
-32 11 -40 16 -10 6 -7 7 10 2 14 -3 32 -11 40 -16z m166 -9 c24 -6 44 -15 44
-20 0 -4 -21 -1 -47 8 -75 25 -73 31 3 12z m-58 -29 c34 -13 61 -25 59 -27 -5
-4 -138 45 -146 54 -6 7 -5 6 87 -27z m512 -196 c0 -7 -58 25 -65 36 -3 5 10
1 29 -11 20 -12 36 -23 36 -25z m-190 29 c0 -5 -13 -17 -28 -27 l-27 -19 24
26 c26 28 31 32 31 20z m-116 -50 c-22 -21 -48 -49 -57 -63 -16 -23 -16 -22 0
8 17 32 76 92 90 92 3 0 -11 -17 -33 -37z m485 11 c10 -9 -35 -3 -49 6 -11 8
-7 9 15 4 17 -4 32 -8 34 -10z m185 -75 c-7 -15 -18 -31 -24 -34 -5 -3 -10
-14 -10 -24 0 -25 -70 -90 -111 -101 -19 -6 -77 -13 -129 -16 l-96 -7 -32 32
c-18 18 -32 40 -32 49 0 12 8 7 26 -16 34 -43 64 -54 127 -46 39 6 47 9 32 15
-11 4 -38 8 -60 8 -44 1 -87 25 -113 62 -13 19 -8 17 21 -8 28 -25 47 -33 76
-33 21 0 52 -5 70 -11 34 -12 55 -4 31 11 -8 6 -10 10 -4 10 5 0 15 -5 21 -11
14 -14 69 11 66 29 -2 6 4 9 12 6 29 -12 12 -33 -40 -52 -25 -9 -26 -11 -8
-11 52 -2 132 58 133 100 0 9 9 24 20 34 21 19 26 50 10 60 -5 3 -10 14 -10
23 0 12 6 8 19 -12 18 -27 18 -32 5 -57z m-764 58 c0 -1 -30 -32 -67 -67 -62
-60 -64 -60 -18 -10 58 62 85 87 85 77z m150 -10 c0 -2 -15 -16 -32 -33 l-33
-29 29 33 c28 30 36 37 36 29z m549 -81 c-9 -8 -10 -7 -5 7 3 10 7 24 7 30 1
7 3 4 6 -7 3 -10 -1 -23 -8 -30z m-541 14 c-7 -10 -14 -17 -17 -15 -4 4 18 35
25 35 2 0 -1 -9 -8 -20z m-198 -90 c-23 -27 -44 -50 -47 -50 -7 0 13 26 51 68
46 49 43 38 -4 -18z m160 17 c0 -2 -10 -12 -22 -23 l-23 -19 19 23 c18 21 26
27 26 19z m768 -43 l47 -45 -32 6 c-39 8 -41 0 -18 -65 19 -53 19 -60 1 -60
-8 0 -22 20 -32 45 -10 27 -23 45 -32 45 -12 0 -13 3 -5 11 8 8 8 22 -3 51
-18 53 -18 58 7 58 11 0 41 -21 67 -46z m-738 -23 c0 -6 -12 -23 -26 -38 l-25
-28 23 37 c24 40 28 44 28 29z m597 -28 c0 -16 6 -47 12 -71 12 -46 4 -75 -28
-99 -23 -17 -25 -9 -6 27 16 30 16 35 0 76 -15 39 -20 43 -41 38 -34 -9 -30 1
13 31 47 31 50 31 50 -2z m-240 -45 c-2 -7 -12 -39 -21 -70 -13 -45 -21 -58
-36 -58 -13 0 -22 9 -26 25 -8 30 -20 32 -29 4 -4 -12 -14 -19 -23 -17 -13 3
-18 17 -20 62 -4 62 10 71 22 14 6 -30 8 -31 18 -13 17 31 18 31 38 5 l18 -25
8 30 c8 37 22 55 41 55 8 0 13 -6 10 -12z m147 -41 c26 -19 17 -51 -17 -55
-21 -3 -27 1 -27 17 0 24 10 51 19 51 4 0 15 -6 25 -13z m-64 -47 c0 -30 -56
-42 -66 -15 -4 8 1 27 11 41 16 25 17 25 36 8 10 -9 19 -25 19 -34z"/>
<path d="M1635 2280 l-30 -31 37 -34 c20 -19 42 -51 49 -70 7 -19 17 -35 22
-35 11 0 37 64 37 91 0 24 -59 108 -76 109 -5 0 -23 -14 -39 -30z m82 -137
c-3 -10 -5 -2 -5 17 0 19 2 27 5 18 2 -10 2 -26 0 -35z"/>
<path d="M1407 2248 c-48 -37 -48 -170 0 -281 11 -26 19 -34 24 -25 10 16 0
170 -12 183 -5 5 -9 16 -9 24 0 11 4 10 15 -5 12 -16 14 -17 15 -2 0 9 5 18
10 20 18 6 25 79 9 89 -19 12 -32 11 -52 -3z"/>
<path d="M2059 1962 c-56 -59 -67 -80 -23 -41 23 20 50 41 60 47 13 8 16 14 9
21 -8 8 -21 0 -46 -27z"/>
<path d="M2152 1977 c-48 -18 -179 -123 -198 -158 -17 -33 -14 -33 39 3 49 35
28 11 -25 -28 -65 -47 -70 -54 -52 -72 15 -15 12 -22 -24 -60 -23 -25 -62 -79
-62 -87 0 -4 7 -5 15 -1 8 3 15 1 15 -3 0 -16 154 30 178 52 26 24 31 25 42 7
10 -16 94 21 135 59 17 15 38 33 48 40 15 12 17 12 11 -5 -4 -10 -16 -27 -28
-37 -20 -17 -20 -17 19 -2 40 16 94 69 95 93 0 9 -7 8 -25 -4 -14 -9 -25 -12
-25 -6 0 5 11 17 24 26 29 18 42 54 27 69 -8 8 -18 4 -38 -14 -22 -18 -20 -16
5 12 17 19 32 38 32 42 0 4 -19 4 -42 1 -28 -5 -64 -23 -103 -52 l-60 -44 50
46 c28 25 44 45 37 46 -22 0 -76 -26 -112 -55 l-35 -29 29 32 c35 38 101 72
142 73 26 0 27 1 10 12 -10 7 -31 22 -46 35 -31 25 -33 25 -78 9z m208 -132
c0 -8 -4 -15 -10 -15 -5 0 -7 7 -4 15 4 8 8 15 10 15 2 0 4 -7 4 -15z m-340
-120 c-24 -25 -46 -45 -49 -45 -5 0 58 70 74 82 26 20 15 4 -25 -37z m81 -31
c-23 -30 -28 -49 -8 -38 6 4 8 3 4 -1 -13 -15 -39 -15 -33 0 3 8 2 16 -2 18
-4 2 -1 2 6 1 7 -2 12 4 10 13 -2 10 2 18 9 18 6 0 15 3 19 8 17 17 14 5 -5
-19z"/>
<path d="M1113 1868 c-15 -19 -36 -88 -29 -95 3 -3 12 9 20 28 28 70 32 96 9
67z"/>
<path d="M1455 1820 c10 -11 20 -18 23 -15 7 6 -18 35 -31 35 -5 0 -2 -9 8
-20z"/>
<path d="M1771 1690 c0 -29 1 -32 10 -17 7 11 7 23 0 35 -9 14 -10 11 -10 -18z"/>
<path d="M1691 1693 c0 -5 9 -26 20 -48 11 -22 17 -31 14 -20 -4 11 -9 32 -12
48 -3 15 -9 27 -14 27 -5 0 -9 -3 -8 -7z"/>
<path d="M861 1979 c-6 -18 -11 -37 -10 -43 0 -6 7 7 15 28 8 22 12 41 10 43
-2 2 -9 -10 -15 -28z"/>
<path d="M2671 1744 c0 -11 3 -14 6 -6 3 7 2 16 -1 19 -3 4 -6 -2 -5 -13z"/>
<path d="M823 1575 c3 -39 15 -93 26 -120 24 -60 26 -50 5 25 -9 30 -18 78
-21 105 -8 77 -16 69 -10 -10z"/>
<path d="M880 1365 c0 -5 5 -17 10 -25 5 -8 10 -10 10 -5 0 6 -5 17 -10 25 -5
8 -10 11 -10 5z"/>
<path d="M1270 1215 c0 -34 12 -65 25 -65 7 0 18 -7 25 -15 7 -8 17 -15 23
-15 6 0 0 12 -14 26 l-24 27 28 -18 c40 -26 44 -12 5 16 -18 13 -41 33 -50 44
-17 20 -17 20 -18 0z"/>
<path d="M1400 1170 c0 -5 5 -10 10 -10 6 0 10 5 10 10 0 6 -4 10 -10 10 -5 0
-10 -4 -10 -10z"/>
<path d="M1361 1106 c2 -2 15 -9 29 -15 24 -11 24 -11 6 3 -16 13 -49 24 -35
12z"/>
<path d="M1431 1091 c13 -11 28 -17 32 -14 5 3 -4 11 -18 19 -37 19 -42 18
-14 -5z"/>
<path d="M1367 1049 c7 -7 15 -10 18 -7 3 3 -2 9 -12 12 -14 6 -15 5 -6 -5z"/>
<path d="M1915 759 c-9 -14 -2 -20 14 -10 8 6 9 11 3 15 -6 3 -14 1 -17 -5z"/>
</g>
</svg>
