<?xml version="1.0" standalone="no"?>
<!DOCTYPE svg PUBLIC "-//W3C//DTD SVG 20010904//EN"
 "http://www.w3.org/TR/2001/REC-SVG-20010904/DTD/svg10.dtd">
<svg version="1.0" xmlns="http://www.w3.org/2000/svg"
 width="5000.000000pt" height="5000.000000pt" viewBox="0 0 5000.000000 5000.000000"
 preserveAspectRatio="xMidYMid meet">

<g transform="translate(0.000000,5000.000000) scale(0.100000,-0.100000)"
fill="#000000" stroke="none">
<path d="M11882 46508 c-17 -17 -16 -23 23 -76 19 -27 49 -79 66 -117 29 -62
34 -85 50 -254 39 -425 42 -466 31 -518 -16 -74 -6 -478 15 -572 12 -56 15
-103 10 -200 -8 -169 -20 -217 -84 -346 l-54 -110 -10 -135 c-5 -74 -14 -159
-19 -189 -6 -30 -10 -84 -10 -120 0 -99 -32 -237 -74 -318 -33 -63 -36 -77
-36 -152 0 -105 -23 -220 -59 -296 -16 -33 -66 -136 -111 -230 -116 -240 -119
-246 -130 -348 -12 -105 -43 -181 -91 -222 -59 -49 -123 -25 -151 56 -8 23
-12 129 -13 334 0 267 -2 306 -19 355 -24 69 -57 131 -90 171 -14 17 -26 36
-26 42 0 23 -111 196 -141 219 -17 13 -60 49 -95 81 -36 33 -68 57 -70 54 -3
-3 6 -27 20 -53 78 -147 129 -361 115 -477 -5 -37 -11 -72 -14 -76 -2 -5 -11
-82 -19 -172 -16 -171 -31 -232 -86 -345 -16 -34 -46 -100 -65 -147 -19 -47
-46 -104 -60 -126 -14 -22 -25 -43 -25 -46 0 -3 -46 -90 -103 -193 -57 -103
-125 -236 -151 -297 -76 -178 -153 -327 -193 -376 -21 -26 -96 -125 -166 -220
-71 -96 -148 -199 -173 -229 -24 -30 -84 -107 -133 -170 -230 -297 -349 -400
-460 -400 -57 0 -90 16 -113 56 -46 79 -42 227 15 469 33 142 36 165 46 430
13 347 3 443 -58 570 -21 44 -54 100 -72 125 -19 25 -51 69 -69 98 -33 50
-133 136 -151 130 -4 -2 -2 -16 5 -33 22 -49 46 -298 46 -481 0 -264 -28 -424
-100 -564 -21 -41 -52 -106 -68 -145 -46 -110 -90 -168 -341 -449 -230 -256
-362 -398 -406 -435 -22 -18 -61 -61 -87 -95 -56 -73 -265 -271 -328 -311 -25
-15 -63 -43 -85 -60 -46 -38 -256 -150 -365 -195 -41 -18 -92 -48 -112 -68
l-38 -36 6 -85 c3 -47 15 -153 26 -236 24 -180 22 -331 -6 -385 -32 -61 -126
-179 -161 -200 -36 -22 -192 -89 -285 -121 -30 -11 -102 -29 -160 -40 -58 -12
-123 -32 -146 -44 -40 -23 -207 -98 -359 -160 -44 -18 -108 -40 -141 -49 -34
-9 -87 -27 -118 -42 -31 -14 -107 -38 -169 -54 -104 -25 -218 -60 -537 -161
-69 -22 -181 -48 -251 -58 -69 -10 -134 -23 -145 -29 -28 -14 -144 -38 -351
-72 -197 -32 -286 -62 -491 -162 -90 -45 -112 -61 -183 -135 -98 -104 -119
-144 -126 -238 l-6 -71 46 -52 c36 -40 48 -63 57 -109 24 -121 41 -180 74
-248 82 -170 110 -324 95 -510 -20 -242 -22 -419 -4 -553 19 -150 35 -211 93
-362 22 -58 45 -121 51 -141 7 -20 28 -63 48 -95 19 -33 46 -85 59 -118 27
-68 63 -128 101 -173 l28 -31 1 131 c1 108 7 165 37 317 20 102 48 218 62 259
17 50 25 96 25 140 0 98 18 269 35 336 34 129 112 247 212 321 92 68 121 83
132 65 5 -7 11 -40 15 -73 10 -95 48 -235 124 -450 74 -210 140 -333 219 -410
35 -34 190 -124 199 -115 2 2 -1 19 -7 37 -15 43 -5 203 17 261 16 45 30 112
58 284 23 140 85 393 108 438 28 56 110 180 127 194 24 19 70 15 107 -8 44
-27 74 -79 122 -214 21 -60 48 -128 60 -150 29 -58 101 -121 154 -135 23 -6
59 -16 78 -22 41 -11 102 -7 106 7 2 6 -16 24 -39 40 -60 44 -80 102 -81 232
l0 102 48 96 c73 147 198 266 424 400 172 103 407 188 579 210 35 5 75 21 125
51 61 35 89 46 154 55 151 21 277 -5 392 -79 34 -22 85 -45 113 -51 96 -21
191 -86 248 -170 21 -31 49 -65 61 -76 12 -11 33 -42 47 -70 37 -71 29 -147
-25 -258 -54 -111 -106 -182 -246 -337 -125 -139 -245 -247 -368 -332 -40 -28
-99 -69 -131 -91 -31 -22 -81 -61 -110 -87 -41 -35 -77 -54 -148 -79 -52 -19
-112 -44 -135 -57 -22 -13 -61 -27 -86 -30 l-44 -6 0 -77 c0 -42 -3 -97 -8
-124 -6 -42 -14 -52 -69 -97 -78 -63 -137 -91 -207 -97 -48 -4 -60 -1 -94 22
-21 14 -42 23 -46 18 -5 -4 -10 -53 -12 -108 -2 -59 -10 -112 -19 -130 -24
-50 -151 -104 -246 -105 -42 0 -140 37 -165 62 -26 26 -35 13 -43 -62 -3 -30
-13 -80 -21 -110 -9 -30 -24 -86 -35 -125 -29 -105 -64 -169 -122 -221 -114
-103 -207 -111 -300 -28 -21 20 -57 43 -80 53 -23 10 -64 32 -91 49 -27 17
-70 38 -96 47 -88 29 -240 180 -240 239 0 40 -20 18 -44 -47 -27 -76 -32 -135
-17 -214 55 -279 31 -371 -106 -413 -90 -28 -125 -26 -165 8 -18 16 -49 39
-68 52 -19 14 -70 62 -114 108 -43 45 -108 102 -143 125 -47 30 -74 57 -98 98
-50 81 -85 160 -85 192 0 16 -5 27 -14 27 -17 0 -30 -32 -56 -142 -32 -136
-35 -218 -12 -333 41 -206 41 -206 171 -338 64 -64 147 -138 184 -164 101 -69
142 -129 263 -383 149 -312 266 -512 345 -587 19 -18 44 -45 56 -61 l22 -29
172 -6 171 -6 58 29 c32 16 80 34 106 41 95 23 171 75 233 157 125 168 470
508 606 599 152 100 187 134 296 282 199 267 296 366 419 429 32 17 109 66
172 109 62 44 149 101 193 126 44 25 114 76 155 113 41 36 125 101 185 144 61
43 156 120 212 172 56 52 128 117 160 144 32 26 108 96 168 154 61 58 146 132
190 165 101 74 164 133 226 211 35 44 83 85 164 140 81 56 118 88 126 109 7
16 69 86 139 155 69 69 147 152 172 185 63 82 102 121 212 209 52 42 113 99
136 126 23 28 85 82 138 122 54 39 142 115 197 167 84 80 124 109 245 178 80
45 199 103 265 128 66 26 140 61 164 77 23 16 65 40 92 54 28 13 71 41 97 61
26 20 75 49 110 66 55 26 69 28 121 22 127 -15 294 -143 362 -276 38 -77 55
-146 70 -297 13 -121 12 -125 -15 -235 -28 -115 -47 -156 -160 -344 -76 -126
-130 -205 -182 -269 -22 -28 -78 -111 -123 -185 -132 -215 -224 -345 -313
-443 -46 -50 -108 -125 -137 -166 -30 -41 -80 -104 -111 -140 -31 -36 -90
-110 -130 -165 -40 -55 -104 -129 -142 -164 -44 -41 -90 -98 -125 -155 -31
-50 -90 -127 -132 -171 -42 -44 -111 -125 -152 -180 -42 -55 -107 -136 -144
-180 -38 -44 -84 -105 -103 -135 -20 -30 -61 -84 -92 -120 -31 -36 -90 -108
-131 -160 -41 -52 -123 -151 -184 -218 -112 -125 -171 -171 -275 -212 -25 -10
-94 -41 -154 -69 -60 -28 -126 -56 -147 -61 -47 -13 -119 -81 -176 -168 l-42
-63 15 -42 c30 -85 74 -105 149 -67 22 11 49 20 61 20 13 0 29 7 38 15 18 19
46 19 46 1 0 -28 -82 -192 -137 -274 -35 -52 -119 -146 -222 -251 -91 -92
-209 -216 -261 -275 -97 -110 -240 -254 -340 -341 -97 -85 -156 -162 -214
-280 -50 -100 -63 -118 -109 -151 -28 -21 -85 -69 -124 -108 -98 -93 -105 -88
-101 78 3 115 2 121 -17 124 -30 4 -124 -108 -260 -313 -51 -77 -175 -281
-175 -289 0 -4 -25 -57 -56 -119 -83 -166 -138 -299 -185 -448 -23 -74 -70
-217 -106 -319 -35 -102 -86 -261 -113 -355 -27 -93 -65 -221 -84 -283 -41
-128 -43 -144 -20 -163 12 -10 19 -10 32 -1 10 7 26 16 37 21 28 12 48 38 40
51 -3 5 -1 10 4 10 17 0 13 -55 -10 -160 -16 -71 -21 -127 -20 -222 1 -83 -3
-147 -13 -185 -33 -131 -47 -265 -40 -376 7 -119 -7 -275 -38 -422 -29 -139
-33 -234 -14 -375 10 -69 22 -145 28 -170 7 -30 10 -185 9 -455 -2 -333 1
-428 13 -505 9 -52 16 -125 16 -162 0 -36 9 -117 19 -180 27 -157 48 -318 56
-413 14 -178 36 -327 63 -421 30 -103 205 -523 273 -654 60 -116 316 -438 468
-590 48 -47 130 -133 183 -191 84 -92 110 -113 185 -154 49 -25 111 -60 138
-75 66 -38 133 -46 242 -27 48 8 90 13 92 11 2 -2 12 -94 22 -206 69 -752 175
-1450 325 -2156 450 -2111 1260 -4094 2417 -5917 511 -805 1113 -1602 1753
-2320 802 -900 1693 -1718 2659 -2440 2920 -2183 6435 -3431 10070 -3575 330
-13 1104 -13 1430 0 3217 128 6330 1111 9040 2853 746 480 1503 1052 2170
1642 604 534 1265 1206 1776 1805 2289 2686 3737 5965 4177 9463 16 125 31
229 33 231 2 2 414 9 914 15 501 5 933 14 961 20 107 20 258 155 304 273 l25
63 0 1680 0 1680 -34 70 c-24 50 -54 90 -107 142 -120 119 -5 108 -1111 111
l-962 3 -5 42 c-3 23 -15 114 -26 202 -175 1381 -539 2822 -1045 4145 -326
852 -748 1739 -1207 2540 -587 1021 -1322 2046 -2097 2925 -490 554 -1104
1166 -1646 1640 -1417 1239 -3002 2242 -4715 2982 -1812 784 -3695 1256 -5670
1422 -1286 108 -2660 72 -3935 -105 -2092 -290 -4128 -945 -5967 -1920 -97
-52 -179 -94 -182 -94 -3 0 -59 80 -124 178 -125 186 -107 166 -556 622 -56
56 -112 102 -168 134 -45 27 -101 61 -123 76 -22 15 -139 78 -260 140 -121 62
-238 125 -260 140 -51 34 -283 142 -355 165 -70 22 -235 101 -278 132 -63 47
-89 52 -228 46 -84 -4 -153 -1 -199 7 -38 7 -133 15 -210 19 -129 6 -145 8
-200 36 -78 39 -105 78 -105 155 0 43 5 63 23 86 26 35 113 115 182 169 28 21
115 102 195 180 148 144 259 244 340 305 25 19 79 66 121 105 42 38 96 86 120
106 52 43 189 129 204 129 7 0 21 10 33 23 l22 24 -267 -3 c-296 -2 -401 -13
-598 -64 -177 -45 -396 -125 -510 -184 -55 -29 -138 -68 -184 -86 -46 -18
-105 -48 -131 -66 -25 -17 -76 -47 -111 -64 -35 -18 -107 -61 -159 -95 -52
-34 -120 -75 -150 -90 -30 -15 -91 -53 -135 -85 -95 -68 -194 -136 -330 -227
-55 -36 -149 -111 -208 -165 -59 -54 -118 -104 -131 -109 -42 -19 -76 7 -107
81 -46 110 -55 347 -40 1107 11 548 26 2164 22 2341 -1 40 -11 87 -27 130 -19
48 -26 84 -24 125 2 85 -20 148 -137 382 l-106 213 -111 118 c-108 117 -139
137 -164 112z m14878 -4377 c685 -39 1202 -91 1813 -182 2367 -352 4686 -1205
6737 -2477 3107 -1928 5554 -4777 6993 -8142 602 -1410 1037 -2959 1247 -4445
61 -434 68 -496 56 -501 -6 -2 -151 -3 -321 -2 l-310 3 -8 60 c-257 1987 -778
3738 -1627 5472 -1196 2441 -2937 4551 -5105 6184 -4281 3225 -9806 4273
-14980 2842 -563 -155 -1152 -353 -1748 -587 -93 -36 -174 -66 -181 -66 -7 0
-55 -18 -107 -41 -52 -22 -143 -60 -204 -85 -60 -25 -168 -74 -240 -109 -71
-34 -186 -90 -255 -123 -69 -33 -141 -69 -160 -80 -19 -10 -66 -34 -105 -51
-38 -18 -195 -98 -349 -178 -299 -156 -296 -155 -296 -83 0 46 -26 145 -49
190 -9 19 -46 86 -80 148 -35 62 -62 114 -60 116 29 28 807 418 1089 545 1177
532 2303 910 3535 1185 1040 233 2104 370 3235 416 267 10 1231 5 1480 -9z
m-250 -651 c2119 -86 4140 -538 6072 -1359 3047 -1293 5695 -3485 7528 -6230
452 -678 762 -1213 1125 -1946 813 -1640 1347 -3359 1610 -5183 19 -134 38
-274 41 -313 l7 -69 -271 0 c-349 0 -335 4 -502 -166 -65 -67 -125 -135 -134
-152 -35 -68 -37 -143 -34 -1772 3 -1514 4 -1608 21 -1650 43 -109 54 -125
140 -206 36 -34 89 -61 142 -73 77 -17 291 -31 477 -31 l169 0 -6 -32 c-3 -18
-12 -89 -21 -158 -260 -2090 -963 -4232 -2005 -6110 -1130 -2037 -2651 -3813
-4489 -5240 -2482 -1928 -5451 -3136 -8585 -3494 -989 -113 -2059 -138 -3070
-71 -3483 231 -6834 1531 -9555 3705 -1790 1430 -3252 3170 -4357 5185 -130
237 -413 799 -526 1045 -739 1609 -1222 3300 -1441 5045 -22 170 -40 340 -71
659 l-6 58 28 -7 c15 -3 62 -21 103 -39 41 -19 126 -50 187 -70 101 -32 124
-36 221 -36 91 0 113 3 133 19 46 36 85 48 168 55 46 4 109 13 140 21 122 31
255 45 429 45 106 0 172 4 167 9 -12 11 -150 35 -324 56 -96 12 -141 13 -198
5 -105 -14 -210 1 -240 36 -26 28 -28 47 -10 86 17 38 94 98 125 98 15 0 43 4
62 10 55 15 287 39 490 51 172 10 193 13 305 49 66 21 179 52 250 70 96 23
162 47 253 90 67 33 141 64 164 71 49 13 155 65 231 113 28 18 84 50 122 71
39 21 106 63 150 95 44 31 117 78 161 104 45 25 112 72 150 104 38 32 103 84
144 117 104 83 315 284 437 418 80 87 102 118 100 137 -1 19 -9 26 -28 28 -37
4 -241 -122 -406 -250 -147 -115 -301 -211 -411 -258 -75 -32 -184 -98 -262
-159 -25 -20 -104 -71 -175 -114 -72 -43 -159 -96 -195 -118 -93 -57 -185 -98
-258 -116 -80 -20 -133 -7 -163 40 -44 70 -1 225 73 263 52 27 168 118 273
214 84 77 178 151 426 335 107 80 281 230 331 286 33 36 92 93 131 125 103 85
374 347 444 429 32 39 97 117 143 175 46 58 103 126 127 152 56 61 155 263
179 363 16 68 17 87 5 188 -6 62 -20 145 -30 184 -21 82 -97 215 -172 300 -29
33 -58 80 -70 114 -12 32 -30 66 -40 75 -19 17 -22 17 -63 -3 -25 -13 -66 -48
-97 -84 -30 -35 -77 -86 -105 -113 -28 -28 -66 -71 -84 -96 -19 -25 -48 -61
-66 -80 -17 -19 -35 -51 -39 -70 -10 -48 -59 -132 -110 -188 -24 -26 -68 -75
-99 -109 -30 -34 -121 -124 -202 -200 -80 -76 -175 -172 -211 -213 -105 -121
-380 -397 -457 -458 -65 -52 -175 -121 -252 -158 -18 -9 -49 -30 -70 -48 -76
-62 -140 -105 -191 -124 -28 -11 -82 -39 -120 -64 -199 -129 -448 -254 -593
-298 -89 -26 -127 -32 -250 -37 -82 -3 -177 -1 -220 5 -64 9 -79 15 -102 42
-57 63 -29 138 57 154 42 8 226 68 275 89 19 9 123 53 230 98 207 88 415 191
517 255 147 93 324 219 398 284 44 38 130 110 190 159 113 91 184 161 339 336
49 55 139 152 200 215 62 63 134 147 161 185 27 39 83 111 125 160 42 50 112
146 155 215 44 69 92 141 107 161 34 44 98 168 117 227 11 32 12 48 3 67 -14
30 -44 33 -63 6 -70 -95 -170 -223 -200 -256 -20 -22 -55 -62 -76 -90 -22 -27
-103 -111 -180 -185 -77 -74 -201 -207 -275 -295 -134 -157 -594 -625 -616
-625 -6 0 -49 -33 -95 -72 -148 -127 -295 -241 -427 -330 -84 -57 -313 -178
-375 -198 -22 -7 -85 -37 -141 -66 -56 -30 -125 -61 -155 -70 -30 -9 -63 -21
-74 -29 -34 -21 -165 -65 -196 -65 -16 0 -88 -12 -160 -26 -72 -14 -135 -22
-139 -17 -12 13 -151 488 -204 700 -32 127 -32 174 -1 471 127 1195 386 2410
752 3525 32 98 44 121 123 226 48 65 133 171 190 236 56 65 170 204 254 309
184 229 311 355 586 576 201 162 280 231 450 396 92 90 139 116 242 134 35 6
110 20 168 30 167 31 259 39 525 51 268 11 295 8 364 -36 20 -12 64 -37 98
-54 34 -17 87 -51 117 -76 52 -42 61 -45 128 -51 101 -8 172 -21 246 -46 77
-27 84 -22 112 77 29 101 60 156 106 190 39 28 74 80 74 108 0 7 -15 37 -33
67 -18 30 -41 75 -50 99 -12 29 -44 68 -98 119 -102 96 -123 135 -124 227 0
63 3 75 32 117 27 38 50 55 124 92 50 25 109 59 132 75 23 15 56 35 73 44 17
9 62 41 99 72 37 30 93 69 124 87 31 17 81 51 112 75 31 24 79 58 108 76 28
18 75 48 104 68 28 20 121 75 206 123 210 118 472 316 621 467 92 93 147 139
275 225 103 70 188 137 240 189 112 112 248 282 321 400 34 55 86 138 117 184
71 105 158 275 187 366 12 39 26 75 30 80 4 6 17 42 29 80 24 83 75 165 114
183 50 24 85 2 215 -134 65 -68 125 -124 133 -124 39 0 185 183 383 480 88
133 90 137 108 235 10 55 42 177 72 270 156 491 196 755 201 1310 2 255 4 282
31 440 35 196 41 208 172 352 103 114 125 144 181 254 35 68 77 143 93 167 42
61 52 139 38 282 -6 63 -15 140 -20 170 -12 70 -60 424 -60 442 0 7 15 21 33
32 96 55 575 301 618 317 27 11 67 30 88 43 21 14 119 61 217 107 98 45 202
94 229 110 28 15 109 53 180 85 72 31 139 62 150 69 22 13 227 89 340 125 39
13 86 31 105 40 19 10 116 48 215 85 1733 652 3547 1021 5380 1094 296 12
1044 12 1325 1z m-9528 -2176 c37 -26 74 -68 96 -111 11 -20 6 -26 -99 -88
-60 -37 -112 -65 -113 -64 -2 2 -12 29 -22 59 -20 60 -22 176 -4 210 17 31 93
28 142 -6z m157 -232 c18 -35 51 -181 51 -229 0 -71 -24 -161 -51 -189 -15
-16 -33 -24 -56 -24 -71 0 -86 22 -144 205 -26 80 -35 123 -28 130 17 17 193
123 206 124 7 1 17 -7 22 -17z m-761 -3097 c10 -28 12 -77 10 -165 -4 -104 -9
-139 -32 -205 -33 -94 -59 -126 -105 -127 -51 -2 -74 29 -74 99 0 104 89 411
126 435 7 5 23 7 37 6 19 -2 28 -12 38 -43z m-9506 -6048 c65 -81 45 -261 -42
-395 -52 -80 -73 -90 -132 -64 -56 25 -78 67 -78 151 0 69 49 215 96 282 42
61 119 74 156 26z m2442 -782 c-267 -922 -449 -1830 -565 -2809 -18 -152 -25
-184 -32 -160 -5 16 -12 247 -14 514 l-5 486 26 144 c15 80 65 303 112 495 47
193 98 413 114 490 16 77 49 227 74 334 43 182 49 199 105 295 32 55 103 185
157 288 54 103 99 186 100 185 2 -1 -31 -119 -72 -262z m34247 -3018 c12 -13
19 -35 19 -59 0 -65 -9 -67 -293 -64 -280 4 -280 4 -280 75 0 70 -6 68 279 69
246 0 256 -1 275 -21z m637 6 c-8 -10 -25 -43 -38 -73 -24 -54 -24 -62 -31
-465 -3 -225 -12 -533 -19 -682 -11 -220 -11 -284 -1 -330 13 -56 50 -130 93
-185 21 -27 21 -29 9 -225 -7 -109 -17 -265 -21 -348 -9 -162 -17 -199 -50
-245 -25 -35 -61 -39 -89 -11 -27 27 -34 167 -25 496 6 247 5 277 -10 300 -21
32 -59 33 -80 3 -14 -19 -16 -74 -16 -398 0 -435 3 -420 -83 -420 -118 0 -126
31 -127 448 l-1 316 -25 33 c-25 32 -27 33 -104 33 l-78 0 -30 -37 c-59 -75
-66 -126 -67 -448 -1 -159 -4 -409 -8 -555 -5 -173 -4 -320 3 -425 20 -281 13
-357 -38 -384 -17 -8 -110 0 -144 14 -43 17 -49 87 -38 460 7 242 6 329 -4
395 -17 109 -49 191 -92 236 -19 20 -34 39 -34 42 0 2 18 20 41 40 22 20 51
56 64 82 57 113 56 487 -2 552 -9 10 -41 32 -72 49 -31 18 -59 37 -63 43 -14
21 -8 65 10 75 11 6 155 9 350 9 l333 -1 24 23 c33 31 38 51 25 99 -8 29 -17
42 -33 46 -12 3 -167 9 -344 13 l-321 7 -26 24 c-20 19 -26 34 -26 67 0 24 6
46 12 50 7 5 167 9 357 10 298 2 345 4 359 18 23 22 22 114 -1 149 l-17 27
-168 1 c-92 0 -216 3 -277 5 -260 9 -249 7 -266 51 -22 60 28 145 66 113 12
-10 62 -12 220 -7 283 9 371 31 429 110 20 27 21 43 26 410 3 210 9 388 13
395 6 9 63 12 229 12 210 0 220 -1 206 -17z m-1428 -16 c33 -17 49 -72 27 -94
-14 -14 -39 -16 -154 -15 -241 4 -283 15 -252 70 9 17 30 31 54 38 55 17 293
17 325 1z m2719 -110 c44 -22 48 -42 15 -74 -47 -46 -137 -110 -164 -116 -14
-4 -47 -26 -75 -51 l-50 -44 -70 70 c-70 68 -134 105 -225 129 -19 4 -141 9
-270 9 -200 1 -241 4 -278 19 -24 9 -43 21 -43 26 0 4 17 16 38 26 35 16 82
17 568 18 402 1 536 -2 554 -12z m-2746 -177 c52 -15 58 -37 60 -207 2 -118
-1 -145 -14 -158 -14 -14 -50 -17 -250 -18 -220 -2 -236 -1 -269 19 -47 27
-59 68 -61 214 -3 156 -6 153 144 161 145 9 341 3 390 -11z m782 -4 c50 -21
59 -63 48 -209 -7 -88 -14 -122 -27 -136 -30 -33 -107 -43 -308 -39 -171 3
-189 5 -215 24 l-28 21 -3 162 c-1 88 -1 162 0 162 2 1 107 7 233 14 127 6
238 13 248 13 10 1 33 -4 52 -12z m2159 -30 c44 -54 46 -85 6 -114 -40 -30
-152 -31 -190 -3 -21 17 -23 23 -15 48 10 28 122 113 150 113 7 0 29 -20 49
-44z m-701 -25 c26 -21 20 -49 -13 -66 -24 -13 -83 -15 -360 -15 l-330 0 -12
26 c-11 22 -9 28 17 50 l29 25 327 -3 c258 -2 329 -6 342 -17z m-163 -261 c24
-24 29 -120 7 -138 -7 -6 -86 -13 -179 -17 -144 -5 -168 -3 -182 10 -21 22
-22 113 0 143 15 21 21 22 175 22 146 0 161 -2 179 -20z m766 5 c48 -20 68
-69 61 -154 -7 -91 -14 -96 -148 -96 -126 0 -133 4 -164 93 -9 26 -25 64 -36
84 -41 78 -26 88 128 88 86 0 134 -4 159 -15z m-474 -91 c25 -44 28 -59 28
-146 0 -93 -1 -99 -29 -130 -24 -28 -31 -49 -46 -148 -9 -63 -23 -130 -31
-149 -8 -18 -14 -42 -14 -52 0 -11 -9 -28 -20 -39 -20 -20 -28 -21 -333 -15
-172 3 -327 8 -344 11 l-33 5 0 69 c0 57 3 71 18 79 21 11 35 4 51 -26 7 -14
21 -23 34 -23 13 0 32 -7 43 -15 15 -11 58 -14 212 -15 l192 0 51 35 c28 19
57 35 65 35 30 0 71 131 54 175 -6 14 -10 52 -10 83 0 101 23 327 34 334 18
12 49 -16 78 -68z m-38477 -57 c45 -46 57 -66 78 -133 14 -43 32 -94 40 -113
10 -24 13 -58 9 -120 -3 -68 0 -100 16 -151 11 -36 25 -99 32 -140 11 -69 10
-79 -10 -133 -27 -72 -54 -92 -115 -83 -97 13 -135 58 -149 175 -4 30 -18 93
-32 139 -13 46 -24 99 -24 117 0 44 -27 161 -46 196 -8 17 -14 57 -14 100 0
62 4 79 31 125 35 61 51 73 97 74 27 0 43 -10 87 -53z m36117 -135 c51 -21 53
-29 56 -425 4 -409 6 -399 -62 -412 -18 -4 -44 -21 -62 -42 -44 -50 -77 -48
-121 6 -45 54 -85 57 -107 9 -29 -65 -28 -84 5 -135 24 -37 29 -55 25 -82 -5
-36 -31 -71 -51 -71 -7 0 -15 -7 -19 -15 -7 -20 -25 -19 -33 3 -11 30 -35 52
-59 52 -13 0 -26 5 -29 10 -3 6 -19 10 -34 10 -16 0 -39 9 -52 19 -23 19 -23
19 -5 40 24 26 68 34 129 23 45 -9 47 -8 47 13 0 34 10 55 26 55 17 0 18 14 2
56 -14 41 -43 54 -117 54 -96 0 -89 -30 -93 423 -4 394 -4 399 16 414 18 12
58 14 266 10 142 -2 256 -9 272 -15z m2023 -52 c51 -11 65 -32 65 -95 0 -86
-6 -89 -166 -89 -177 -1 -190 3 -204 55 -6 22 -10 61 -8 87 3 39 7 47 28 54
30 9 228 0 285 -12z m841 -112 c43 -21 48 -49 49 -303 1 -132 -2 -248 -7 -257
-12 -25 -45 -22 -63 6 -33 50 -84 196 -105 301 -12 61 -28 117 -35 125 -7 8
-16 37 -20 63 -6 39 -4 52 11 68 16 18 26 19 84 14 36 -3 75 -11 86 -17z
m-322 -197 c24 -26 76 -203 83 -279 4 -52 2 -66 -13 -84 -32 -35 -62 -40 -116
-22 -72 24 -79 40 -68 159 10 119 34 203 62 228 26 22 31 21 52 -2z m-1944
-221 c0 -10 -41 -30 -61 -30 -20 0 -8 19 19 28 36 14 42 14 42 2z m1407 -117
c217 -8 250 -15 219 -46 -31 -30 -530 -35 -623 -6 -39 13 -45 45 -10 59 12 5
63 7 112 5 50 -3 185 -8 302 -12z m1023 -145 c28 -45 27 -131 0 -158 -26 -26
-44 -25 -62 1 -13 20 -27 23 -179 32 -90 5 -170 14 -177 20 -26 21 9 30 125
34 169 5 217 14 222 38 13 72 40 84 71 33z m-642 -84 c70 -5 83 -8 80 -22 -3
-15 -23 -17 -188 -16 l-185 2 -35 -52 c-19 -28 -45 -64 -58 -80 -17 -22 -22
-38 -19 -60 3 -17 1 -83 -5 -146 -5 -63 -13 -390 -16 -727 l-7 -611 -24 -26
c-18 -19 -35 -26 -61 -26 -90 0 -99 38 -111 460 -5 184 -8 553 -7 820 l3 485
135 5 c148 5 368 3 498 -6z m-2288 -23 c0 -45 37 -69 97 -64 67 7 123 -17 123
-52 0 -34 -31 -45 -130 -45 -78 0 -79 0 -82 -27 -4 -39 -25 -39 -43 -1 -8 18
-24 48 -36 65 -22 35 -19 53 11 53 16 0 21 10 26 50 7 56 34 72 34 21z m755
-97 c15 -23 18 -57 20 -233 1 -113 5 -262 10 -331 6 -108 11 -130 32 -163 28
-45 89 -76 148 -77 22 0 51 -6 65 -13 23 -12 24 -17 28 -122 5 -143 5 -143
-144 -153 l-108 -7 -9 -38 c-12 -50 -2 -86 28 -97 13 -5 62 -14 107 -20 102
-12 116 -24 124 -107 6 -57 4 -65 -19 -96 l-26 -34 -128 -6 c-70 -3 -136 -9
-145 -12 -14 -6 -18 -19 -18 -65 0 -39 -5 -62 -15 -70 -19 -16 -61 -5 -70 17
-4 10 -9 311 -11 668 -2 358 -6 679 -9 715 -8 97 17 219 50 247 35 31 69 29
90 -3z m802 -32 c8 -33 9 -1215 1 -1431 -6 -169 -8 -175 -68 -165 -45 8 -49
12 -58 65 l-7 44 -105 5 c-58 3 -111 9 -119 14 -25 16 -41 75 -41 154 0 54 4
83 13 90 7 7 64 14 126 18 61 4 114 11 117 15 10 18 -9 108 -24 114 -9 3 -52
9 -95 12 -106 8 -117 18 -124 114 -10 130 9 169 80 169 40 0 91 20 125 48 30
25 34 34 43 112 20 170 32 378 29 517 -2 142 -2 143 21 152 33 12 77 -12 86
-47z m-36845 -49 c41 -44 58 -70 67 -108 21 -85 49 -139 84 -161 24 -16 46
-49 80 -116 32 -65 54 -98 71 -106 46 -21 53 -53 65 -287 6 -121 14 -247 18
-280 4 -41 2 -57 -5 -50 -5 6 -48 75 -95 155 -47 80 -104 171 -127 203 -23 32
-47 77 -52 100 -11 50 -54 161 -76 197 -9 14 -35 46 -59 72 -23 26 -56 75 -73
109 -17 35 -39 72 -50 84 -26 27 -50 87 -50 124 0 74 40 120 106 121 37 0 46
-6 96 -57z m38043 -10 c75 -6 100 -18 86 -41 -8 -13 -16 -13 -306 -13 -198 1
-400 13 -413 25 -14 15 22 19 239 27 128 5 235 12 238 15 4 3 23 3 44 0 20 -4
71 -9 112 -13z m-3145 -148 c25 -51 25 -73 1 -102 -25 -30 -33 -29 -78 12 -36
33 -42 35 -106 35 -63 0 -68 2 -79 26 -21 45 -1 60 73 56 60 -3 66 -2 93 27
l30 31 23 -22 c12 -12 32 -40 43 -63z m456 35 c48 0 59 -4 91 -34 32 -29 35
-36 24 -50 -10 -12 -32 -16 -96 -16 l-83 0 -11 -30 c-12 -36 -28 -38 -43 -5
-6 13 -24 28 -39 34 -16 5 -29 14 -29 19 0 5 17 27 38 50 31 35 42 41 66 37
16 -3 53 -5 82 -5z m2252 -115 c42 -18 65 -42 58 -60 -6 -16 -13 -17 -127 -15
-101 2 -160 -14 -198 -54 l-31 -32 -3 -140 -2 -139 40 -60 c39 -58 43 -61 119
-86 43 -14 82 -32 86 -40 4 -8 16 -47 26 -88 13 -53 25 -78 42 -89 16 -10 76
-19 189 -29 92 -7 174 -15 184 -18 23 -8 31 -32 19 -56 -10 -17 -24 -19 -153
-21 -274 -5 -404 0 -436 16 -34 18 -37 28 -46 181 -4 55 -8 102 -11 104 -2 2
-22 4 -43 3 -23 -1 -43 4 -48 11 -10 15 -5 579 5 589 4 4 41 17 82 28 83 22
188 19 248 -5z m524 -5 c21 -6 42 -19 47 -29 11 -19 18 -1058 8 -1068 -4 -3
-12 -3 -20 0 -11 4 -15 52 -20 229 -4 122 -10 233 -13 246 -8 30 -23 28 -64
-9 l-34 -32 -161 7 c-88 4 -164 12 -170 17 -6 6 -4 19 6 37 l15 27 165 0 c188
1 208 7 236 73 21 51 20 292 -2 345 -26 62 -51 72 -196 73 -70 1 -132 5 -138
8 -12 8 -15 45 -5 70 5 14 29 16 158 16 83 0 168 -5 188 -10z m-3021 -109 c36
-36 37 -56 3 -78 -23 -14 -33 -15 -82 -5 -80 17 -85 26 -35 73 50 47 75 49
114 10z m2341 -203 c3 -79 -8 -97 -49 -82 -24 8 -28 16 -31 53 -5 64 4 88 35
99 16 5 31 7 35 3 4 -3 8 -36 10 -73z m207 58 c7 -8 15 -39 18 -68 5 -48 2
-55 -21 -77 -21 -20 -28 -22 -41 -11 -16 13 -21 102 -9 148 7 25 35 29 53 8z
m199 -45 c5 -82 -3 -103 -36 -99 -25 3 -27 7 -30 57 -5 82 3 103 36 99 25 -3
27 -7 30 -57z m182 -31 c0 -50 -18 -77 -45 -66 -19 7 -21 126 -2 145 21 21 47
-23 47 -79z m-3092 -52 c9 -9 57 -12 180 -10 92 2 180 4 197 5 49 3 55 -22 55
-242 0 -111 -5 -219 -12 -252 -11 -55 -13 -57 -47 -63 -66 -11 -156 -7 -177 8
-17 13 -18 16 -3 31 8 8 38 19 65 24 83 13 94 25 94 103 0 37 5 70 10 73 14 9
13 128 -2 159 -6 14 -19 28 -29 31 -10 3 -21 15 -24 26 -4 11 -15 19 -29 19
-13 0 -40 14 -61 30 -21 17 -49 30 -64 30 -42 -1 -143 -25 -178 -43 -18 -10
-42 -17 -55 -17 -51 0 -65 -34 -75 -175 -5 -80 -3 -95 16 -133 24 -47 52 -69
102 -78 56 -11 71 -22 67 -52 -3 -25 -6 -27 -60 -30 -60 -3 -88 7 -143 53
l-30 25 -2 235 -1 235 31 9 c48 14 161 13 175 -1z m-34324 -174 c91 -81 218
-176 301 -224 44 -26 107 -63 140 -83 l61 -37 27 -278 c177 -1784 609 -3482
1297 -5092 776 -1815 1805 -3414 3151 -4895 328 -361 917 -938 1329 -1301
2564 -2260 5803 -3720 9202 -4148 714 -91 1227 -125 1973 -133 810 -9 1464 25
2215 113 3892 458 7514 2230 10260 5020 1509 1533 2689 3287 3551 5277 551
1270 955 2655 1184 4062 27 164 105 715 105 740 0 3 145 5 321 5 l322 0 -7
-62 c-54 -494 -179 -1233 -302 -1788 -690 -3118 -2197 -5982 -4376 -8315 -245
-263 -725 -738 -968 -961 -1470 -1344 -3103 -2409 -4910 -3202 -1834 -804
-3838 -1301 -5840 -1447 -452 -32 -561 -37 -1121 -42 -723 -7 -1148 9 -1789
68 -2401 218 -4699 906 -6809 2036 -2208 1183 -4119 2798 -5672 4793 -1333
1712 -2383 3758 -2998 5840 -376 1275 -595 2483 -696 3845 -17 226 -18 255 -8
255 3 0 29 -21 57 -46z m34886 -130 c13 -158 12 -364 0 -442 -12 -69 -37 -151
-51 -166 -5 -6 -77 -11 -161 -12 -188 -2 -198 2 -197 79 0 28 6 68 13 87 12
32 17 36 62 42 27 4 89 10 137 14 l88 6 19 41 c23 52 28 85 40 262 17 260 35
291 50 89z m-310 81 c21 -13 30 -54 18 -80 -11 -25 -11 -25 -154 -25 -116 0
-145 3 -158 16 -32 31 -7 89 42 97 40 6 239 0 252 -8z m-497 -405 c15 -43 22
-51 55 -60 20 -5 72 -10 115 -10 112 0 147 -21 147 -90 0 -45 -22 -54 -124
-55 -79 0 -98 4 -141 25 -62 32 -105 106 -105 179 0 79 27 85 53 11z m3166
-103 c98 -10 126 -16 135 -29 8 -14 7 -21 -6 -34 -14 -15 -45 -17 -230 -18
-233 -1 -318 11 -318 44 0 46 165 61 419 37z"/>
<path d="M37550 31728 c-104 -8 -147 -16 -255 -52 -71 -24 -168 -55 -215 -71
-115 -37 -224 -94 -289 -150 -93 -80 -152 -98 -208 -64 -33 21 -63 64 -63 92
0 8 -9 22 -20 32 -27 25 -147 18 -187 -11 -59 -42 -124 -212 -175 -459 -7 -36
-43 -119 -89 -210 -42 -82 -82 -173 -87 -201 -6 -29 -24 -85 -41 -125 -46
-117 -88 -304 -83 -371 l4 -56 78 -36 c68 -31 83 -42 106 -82 50 -86 42 -199
-17 -230 -28 -14 -35 -14 -82 2 -29 9 -63 22 -77 29 -21 11 -31 11 -58 -1 -27
-11 -40 -29 -75 -101 -23 -48 -55 -109 -70 -135 -15 -25 -35 -80 -43 -122 -14
-68 -14 -80 1 -131 14 -51 15 -59 1 -80 -15 -23 -42 -31 -136 -37 l-35 -3 -12
-120 c-7 -66 -22 -156 -33 -200 -15 -59 -22 -128 -27 -261 l-6 -181 24 -16
c13 -10 42 -17 64 -17 83 0 100 -47 78 -212 -18 -134 -37 -197 -74 -247 -36
-50 -74 -54 -130 -15 -63 43 -89 92 -98 179 -7 74 -17 94 -47 95 -33 0 -55
-43 -110 -215 -31 -99 -78 -227 -104 -285 -26 -58 -62 -150 -80 -205 -18 -55
-65 -183 -105 -285 -40 -102 -87 -228 -103 -280 -40 -125 -92 -260 -135 -351
-19 -41 -47 -117 -62 -169 -15 -52 -48 -147 -72 -210 -25 -63 -81 -214 -125
-335 -112 -311 -228 -597 -249 -615 -17 -14 -94 -216 -119 -310 -6 -25 -22
-56 -35 -70 -13 -14 -39 -75 -60 -140 -20 -63 -63 -180 -95 -260 -69 -172
-104 -285 -95 -301 4 -6 2 -15 -5 -19 -21 -13 -170 -397 -170 -439 0 -18 37
-56 83 -85 15 -9 44 -42 63 -72 19 -30 48 -69 64 -87 16 -19 34 -46 40 -61 15
-39 12 -148 -5 -239 -8 -43 -15 -124 -15 -180 -1 -56 -5 -133 -10 -172 -9 -66
-8 -73 18 -127 15 -31 30 -57 33 -57 19 -2 61 139 70 238 16 165 36 242 94
361 57 115 70 129 149 155 54 18 84 14 126 -17 66 -48 65 -116 -4 -324 -30
-88 -49 -166 -53 -212 -6 -68 -4 -75 19 -100 13 -15 42 -51 63 -79 44 -60 66
-66 128 -33 65 35 105 20 157 -57 12 -19 30 -25 94 -34 140 -19 183 1 197 92
11 67 37 120 104 204 61 77 117 186 196 375 29 69 67 160 85 203 34 78 95 267
139 427 13 47 28 97 34 112 6 15 19 99 30 186 11 86 31 189 43 227 29 88 136
250 216 329 178 174 769 457 1047 501 134 21 431 83 473 99 43 17 156 41 257
56 109 16 112 17 124 51 34 98 -28 145 -136 105 -94 -35 -345 -44 -473 -16
-173 37 -221 42 -303 32 -43 -6 -90 -18 -105 -28 -65 -44 -382 -144 -455 -144
-70 0 -137 61 -137 125 0 43 51 126 97 158 46 32 143 60 268 77 87 11 290 63
329 82 17 9 94 27 271 62 170 34 282 59 330 72 28 7 104 22 170 33 73 12 161
35 225 59 93 35 155 51 419 107 60 13 67 12 102 -6 75 -38 90 -94 94 -355 1
-127 8 -207 21 -272 30 -152 3 -183 -103 -112 -108 72 -140 52 -149 -91 -9
-129 4 -160 74 -178 28 -7 57 -20 64 -28 9 -11 13 -52 13 -134 0 -64 3 -121 8
-125 4 -4 23 11 42 33 51 60 84 71 148 48 66 -23 82 -37 103 -91 13 -35 15
-60 10 -121 -4 -42 -13 -88 -20 -102 -18 -35 -7 -176 16 -211 35 -54 88 -237
98 -337 4 -54 18 -156 29 -228 33 -207 26 -351 -19 -375 -17 -9 -62 5 -176 56
-17 8 -26 -157 -14 -251 6 -44 15 -136 20 -205 5 -69 16 -152 25 -185 10 -38
18 -127 22 -245 4 -154 9 -193 25 -232 11 -27 24 -48 29 -48 10 0 22 46 43
170 25 139 34 167 63 189 35 28 46 27 89 -11 42 -37 77 -110 105 -222 11 -45
38 -139 59 -211 22 -71 56 -202 75 -289 24 -106 50 -194 79 -260 56 -128 66
-166 66 -246 0 -80 16 -142 64 -248 26 -58 40 -108 49 -174 12 -85 14 -93 37
-98 14 -4 33 -4 42 -2 26 6 67 73 77 127 14 73 26 100 56 123 36 29 85 36 156
25 66 -11 69 -7 40 41 -11 17 -28 58 -40 92 -18 54 -19 67 -8 110 9 38 18 52
40 62 43 21 91 17 127 -9 36 -27 49 -47 120 -187 59 -116 66 -117 78 -9 5 46
2 92 -15 177 -38 202 -73 414 -73 446 0 17 -9 65 -19 106 -11 41 -27 126 -36
189 -11 75 -27 137 -47 182 -24 57 -31 91 -40 195 -13 158 -4 200 48 231 19
12 50 21 68 21 20 0 40 8 51 20 16 18 17 50 13 482 -4 387 -8 470 -21 508 -27
77 -38 159 -47 330 -26 505 -28 463 26 627 39 117 35 224 -23 553 -33 188 -29
255 26 407 39 109 39 112 30 184 -6 41 -28 126 -51 189 -77 222 -87 258 -94
334 -11 118 15 146 133 146 57 0 184 25 218 43 11 6 52 16 90 23 98 17 241 71
368 139 96 52 110 63 136 108 28 48 28 52 14 83 -16 32 -17 33 -97 38 -45 3
-192 7 -328 10 -299 6 -301 7 -402 119 -57 65 -77 79 -119 92 -28 8 -60 15
-71 15 -32 0 -95 47 -102 76 -9 35 22 99 55 114 16 8 117 18 263 26 l236 12
71 37 c40 21 70 39 68 42 -2 2 -30 10 -62 18 -56 15 -180 15 -540 2 -33 -2
-72 3 -86 10 -26 12 -65 57 -88 102 -18 33 -50 171 -61 261 -6 41 -19 111 -30
155 -10 44 -34 143 -51 219 -17 77 -38 155 -45 173 -8 18 -14 56 -14 85 0 78
-27 245 -44 270 -14 21 -66 259 -66 300 0 10 -13 58 -29 106 -17 48 -34 129
-40 182 -5 54 -18 115 -30 142 -14 29 -27 96 -37 185 -9 81 -27 175 -44 228
-24 77 -68 292 -101 485 -5 30 -20 93 -33 140 -42 146 -65 262 -72 355 -3 50
-12 102 -20 117 -8 15 -21 77 -30 139 -8 61 -23 128 -32 148 -19 40 0 34 -212
61 -198 26 -429 113 -528 201 -105 92 -156 104 -372 87z m-158 -2495 c41 -43
63 -100 73 -193 4 -36 13 -80 21 -98 7 -18 18 -61 24 -95 6 -34 17 -78 25 -98
23 -60 83 -299 99 -395 8 -49 27 -115 41 -146 40 -88 72 -229 86 -388 17 -175
17 -236 2 -317 -17 -91 -42 -139 -116 -224 -65 -74 -204 -179 -302 -227 -69
-34 -217 -72 -337 -87 -64 -8 -144 -19 -179 -25 -89 -14 -165 -13 -232 5 -32
8 -69 15 -83 15 -14 0 -36 12 -51 26 -24 24 -25 29 -18 91 9 87 61 226 148
398 33 64 80 190 122 325 18 58 59 177 90 265 31 88 68 194 82 235 23 66 48
131 126 325 11 28 30 86 42 130 12 44 36 115 54 158 17 43 31 92 31 108 0 35
42 139 73 182 23 30 86 65 122 66 12 1 37 -16 57 -36z m-919 -634 c30 -38 22
-110 -38 -313 -30 -103 -74 -235 -96 -294 -22 -59 -47 -134 -56 -167 -45 -181
-72 -257 -115 -317 -17 -24 -26 -28 -69 -28 -42 0 -55 5 -79 29 -16 16 -32 41
-35 57 -3 16 -14 63 -25 104 -36 147 -34 257 7 302 17 19 78 25 88 8 9 -14 61
-12 73 3 11 13 39 105 82 271 16 60 38 130 48 155 11 25 25 69 32 98 9 40 21
61 52 89 35 32 45 35 77 30 20 -3 44 -15 54 -27z m-1168 -971 c35 -16 48 -72
40 -170 -13 -142 -70 -210 -163 -192 -61 12 -83 43 -89 125 -12 160 101 288
212 237z m592 -404 c24 -5 36 -17 54 -52 21 -43 23 -60 24 -194 l0 -147 -29
-29 c-36 -39 -142 -70 -175 -53 -27 15 -47 64 -56 134 -8 62 10 146 50 233 14
30 25 59 25 64 0 12 50 50 65 50 7 0 26 -3 42 -6z m-802 -144 c13 -12 25 -33
28 -47 12 -64 -44 -225 -110 -317 -32 -44 -112 -78 -141 -60 -32 21 -57 65
-56 102 0 34 37 144 56 167 4 5 8 23 8 40 1 41 32 108 61 129 33 24 123 16
154 -14z m2599 -118 c57 -10 65 -30 41 -99 -17 -48 -27 -62 -60 -80 -73 -42
-257 -92 -470 -128 -115 -20 -235 -40 -265 -46 -125 -21 -249 1 -292 53 -21
24 -23 76 -4 101 7 9 71 37 142 62 127 43 177 52 413 70 25 2 73 13 106 25
127 45 279 62 389 42z m1887 -3444 c52 -57 91 -153 100 -248 5 -47 16 -111 26
-142 20 -72 12 -221 -14 -250 -25 -28 -103 -25 -132 6 -27 28 -61 116 -61 156
0 16 -7 47 -15 67 -40 103 -56 201 -49 299 8 114 25 144 80 144 27 0 42 -8 65
-32z m-820 -224 c74 -71 32 -206 -84 -266 -22 -10 -69 -22 -105 -25 -63 -5
-69 -4 -100 23 -29 25 -32 34 -32 82 0 36 7 67 21 91 20 36 87 87 152 117 48
21 112 12 148 -22z"/>
<path d="M19044 31359 c-26 -22 -59 -48 -73 -57 -14 -9 -56 -44 -92 -77 -36
-34 -83 -74 -105 -90 -21 -17 -82 -66 -135 -111 -52 -45 -135 -114 -185 -152
-163 -130 -206 -166 -311 -264 -57 -54 -108 -98 -113 -98 -5 0 -96 -83 -202
-185 -166 -160 -203 -191 -267 -221 -71 -34 -77 -35 -155 -29 -76 6 -84 4
-128 -22 -70 -41 -214 -159 -283 -232 -48 -50 -69 -82 -100 -155 -73 -175
-153 -332 -220 -431 -61 -91 -239 -440 -286 -560 -11 -27 -24 -59 -29 -70 -27
-56 -72 -232 -82 -321 -13 -114 -15 -108 78 -219 23 -27 85 -114 139 -193 89
-132 122 -168 419 -467 344 -347 350 -351 396 -305 24 24 26 64 5 104 -35 67
-12 81 80 47 226 -83 360 -143 575 -256 58 -30 112 -55 121 -55 8 0 49 12 90
26 117 41 212 29 484 -65 66 -23 158 -58 203 -79 184 -82 482 -233 567 -287
50 -32 111 -71 137 -88 59 -37 73 -73 63 -165 -8 -80 -38 -197 -70 -266 -13
-28 -30 -69 -40 -91 -9 -22 -31 -62 -49 -90 -18 -27 -48 -75 -65 -105 -38 -64
-222 -255 -373 -386 -69 -60 -149 -117 -234 -167 -71 -41 -145 -84 -164 -95
-45 -27 -348 -163 -470 -212 -172 -68 -433 -148 -555 -170 -66 -11 -142 -27
-170 -35 -27 -8 -144 -31 -260 -51 -162 -29 -239 -37 -335 -38 -120 -1 -128 0
-190 30 -36 17 -86 49 -112 72 -72 62 -78 62 -172 -1 -44 -30 -96 -63 -114
-72 -44 -22 -53 -50 -59 -185 -9 -210 28 -411 104 -565 25 -50 226 -258 286
-295 15 -10 51 -45 80 -78 215 -253 362 -391 469 -444 75 -37 193 -73 338
-104 104 -22 138 -38 146 -68 10 -40 1 -60 -33 -76 -18 -8 -33 -18 -33 -21 0
-3 39 -11 88 -18 83 -12 91 -12 186 13 54 14 114 26 133 26 62 0 181 30 239
60 31 17 66 30 78 30 29 0 137 35 187 61 23 11 67 27 98 35 92 24 207 111 199
150 -2 10 -21 30 -43 45 -44 30 -57 64 -43 116 11 44 50 62 151 72 102 11 246
42 312 69 28 11 68 22 90 24 54 6 96 29 190 105 44 36 102 76 129 90 27 14 90
64 140 111 50 48 134 124 186 169 53 45 138 130 189 187 51 58 122 130 157
161 81 72 203 214 288 337 36 53 86 118 110 145 84 94 234 321 267 405 11 29
49 114 84 188 35 74 77 182 93 240 17 58 38 123 47 145 40 94 -4 215 -140 381
-87 105 -165 219 -165 239 0 20 -93 135 -190 235 -60 62 -101 114 -118 150
-41 87 -445 495 -639 645 -132 101 -179 136 -243 175 -36 23 -99 66 -140 96
-41 30 -97 66 -123 82 -27 15 -86 51 -130 80 -45 28 -104 59 -132 68 -27 9
-98 40 -156 69 -58 29 -168 76 -245 105 -132 50 -169 57 -288 59 -30 1 -46 9
-73 36 -34 34 -35 38 -30 89 7 73 24 101 122 209 93 103 270 243 380 302 39
20 88 54 110 75 38 36 144 116 247 187 60 42 221 128 273 146 22 8 69 31 103
51 74 42 152 75 272 116 47 16 119 43 160 61 86 36 175 63 275 85 38 8 108 28
155 43 111 38 177 51 254 51 35 0 82 7 105 15 83 29 231 48 324 40 76 -6 91
-4 108 11 48 43 -4 127 -88 140 -50 7 -93 39 -95 69 -3 45 12 73 44 84 31 10
192 13 383 8 73 -2 80 0 80 17 0 52 -155 83 -358 72 -143 -7 -176 3 -206 63
-25 48 -25 54 -5 96 28 59 61 67 247 59 142 -6 164 -5 176 9 7 9 15 52 18 96
5 71 3 83 -17 118 -76 124 -268 290 -420 360 -238 112 -467 159 -696 146 -82
-5 -106 -3 -170 17 -119 38 -141 84 -61 127 28 16 62 18 262 18 143 0 243 5
265 12 19 6 47 14 63 17 58 13 21 46 -67 61 -22 4 -184 6 -360 6 -331 -1 -598
15 -763 45 -119 22 -251 69 -279 99 -31 34 -45 32 -100 -16z m1093 -1227 c27
-22 63 -102 63 -141 0 -63 -23 -74 -325 -167 -447 -136 -500 -159 -670 -280
-80 -56 -206 -142 -281 -191 -168 -110 -455 -321 -511 -375 -23 -22 -57 -50
-77 -62 -19 -11 -95 -64 -168 -118 -209 -151 -257 -170 -325 -128 -55 33 -47
58 62 195 89 111 189 207 275 262 36 24 106 74 155 112 95 73 279 197 362 243
26 15 80 47 119 70 39 24 106 63 148 88 43 25 137 80 209 124 190 113 298 171
407 218 52 22 126 57 165 79 134 73 342 111 392 71z m-1575 -5362 c11 -13 18
-39 18 -64 0 -79 -40 -119 -133 -137 -42 -7 -67 -7 -93 1 -54 18 -57 35 -19
116 29 61 40 74 77 93 55 27 124 23 150 -9z m1472 -222 c20 -58 0 -97 -99
-193 -90 -88 -93 -92 -104 -154 -15 -76 -40 -103 -116 -127 -65 -21 -100 -13
-120 26 -39 76 2 157 117 231 55 35 79 72 102 149 18 66 47 96 107 115 39 11
48 11 74 -4 16 -9 34 -29 39 -43z m-834 -573 c36 -19 51 -44 53 -95 2 -66 -70
-120 -162 -120 -45 0 -52 -3 -64 -27 -8 -16 -17 -40 -21 -55 -9 -40 -38 -51
-122 -46 -89 4 -109 19 -107 77 3 80 42 122 132 146 27 7 67 26 88 42 127 98
148 106 203 78z m-626 -786 c32 -38 35 -90 6 -119 -11 -11 -27 -20 -36 -20 -9
0 -31 -9 -48 -19 -28 -18 -36 -18 -81 -7 -71 18 -134 10 -145 -19 -5 -12 -16
-25 -26 -29 -20 -8 -303 -30 -377 -29 -114 0 -134 108 -29 162 13 7 65 15 115
18 51 3 107 12 126 19 19 8 69 14 115 14 91 0 208 22 240 44 12 8 42 15 68 15
40 1 50 -3 72 -30z"/>
<path d="M27374 31337 c-27 -23 -61 -50 -75 -59 -15 -9 -59 -47 -98 -84 -39
-37 -81 -74 -94 -83 -12 -8 -65 -52 -118 -97 -85 -73 -155 -130 -329 -266 -30
-24 -99 -86 -155 -139 -55 -53 -117 -107 -137 -121 -21 -13 -117 -102 -214
-196 -144 -141 -188 -177 -243 -203 -68 -33 -83 -35 -187 -28 -57 4 -64 2
-120 -35 -82 -55 -197 -150 -265 -221 -49 -51 -66 -79 -110 -185 -71 -168
-132 -286 -211 -405 -68 -103 -221 -401 -287 -560 -79 -188 -133 -429 -111
-490 4 -11 27 -44 51 -74 59 -71 104 -134 196 -271 59 -87 109 -146 207 -240
70 -69 154 -152 185 -185 30 -33 115 -120 187 -194 118 -120 135 -134 164
-133 18 0 40 8 49 16 20 21 18 80 -6 123 -16 30 -16 35 -3 43 21 14 39 8 229
-67 171 -68 213 -87 415 -192 65 -33 128 -61 141 -61 12 0 48 9 81 21 112 39
254 24 432 -45 48 -18 103 -37 122 -41 76 -16 561 -248 685 -328 249 -159 231
-137 222 -275 -6 -88 -30 -179 -65 -249 -11 -21 -23 -53 -27 -71 -3 -17 -23
-58 -44 -90 -21 -31 -56 -88 -79 -127 -71 -120 -409 -444 -544 -522 -35 -20
-103 -60 -153 -89 -258 -153 -831 -376 -1090 -425 -60 -11 -144 -29 -185 -39
-41 -10 -172 -35 -290 -56 -278 -48 -387 -50 -481 -8 -35 16 -87 47 -115 70
-90 74 -84 74 -184 7 -49 -32 -103 -67 -121 -78 -39 -24 -46 -47 -55 -176 -11
-162 19 -342 84 -512 31 -79 92 -153 237 -285 50 -45 97 -89 105 -96 8 -8 65
-69 125 -137 148 -165 286 -297 348 -333 89 -51 187 -83 387 -127 52 -11 105
-27 116 -34 26 -17 38 -59 25 -84 -13 -23 -197 -72 -226 -60 -11 4 -51 8 -88
8 -59 1 -71 -2 -92 -24 -40 -39 -32 -96 16 -121 27 -14 33 -13 77 7 78 35 131
49 250 64 62 8 143 23 180 34 81 25 207 56 326 82 50 11 106 29 125 40 19 11
78 32 130 45 53 14 122 38 153 54 31 17 68 30 81 30 53 0 217 110 217 145 0 7
-15 25 -32 39 -61 48 -68 56 -68 86 0 39 24 87 47 94 27 7 83 16 128 20 54 4
189 34 245 53 25 9 72 22 105 30 89 21 151 54 233 121 41 33 97 72 125 87 29
16 93 67 142 114 50 48 134 124 187 170 54 46 141 132 194 192 53 60 121 130
151 157 71 60 202 214 281 328 34 49 88 119 120 157 93 106 212 292 265 412
26 61 70 157 97 215 27 58 59 143 70 190 12 47 31 106 42 132 45 106 5 232
-122 388 -92 112 -143 186 -175 251 -26 57 -83 127 -219 270 -53 56 -86 100
-94 125 -10 30 -62 89 -220 249 -275 280 -423 408 -617 535 -81 54 -174 117
-237 164 -29 21 -74 49 -100 62 -27 14 -78 44 -114 69 -37 24 -90 52 -118 61
-28 9 -100 40 -161 70 -60 30 -166 75 -235 100 -106 39 -141 47 -229 53 l-104
7 -35 38 c-32 35 -34 42 -28 84 3 25 16 66 27 90 49 99 327 346 476 421 34 17
83 51 110 75 134 120 475 336 529 336 9 0 28 8 42 18 64 44 211 111 342 155
41 14 109 39 150 56 41 17 152 51 245 76 94 24 188 51 209 60 54 23 176 45
246 45 32 0 73 6 91 14 49 20 189 37 315 39 106 2 109 3 123 29 14 24 13 29
-12 66 -23 35 -34 42 -83 53 -72 16 -104 41 -104 80 0 43 15 66 52 78 40 12
208 15 340 5 113 -8 134 -4 118 26 -26 49 -92 62 -319 61 -195 0 -216 5 -245
66 -27 57 -15 108 33 140 23 16 48 18 203 15 205 -3 193 -9 204 106 6 65 5 74
-20 117 -65 109 -262 283 -401 352 -227 113 -474 166 -727 155 -90 -4 -116 -1
-171 17 -69 23 -101 49 -95 77 5 29 64 62 121 69 62 7 269 1 285 -9 24 -15
262 34 262 54 0 5 -15 17 -32 27 -29 15 -82 18 -468 24 -542 9 -682 22 -870
81 -53 17 -106 41 -121 54 -37 35 -69 31 -125 -19z m1103 -1212 c29 -21 63
-98 63 -144 0 -61 -18 -75 -147 -116 -65 -20 -136 -43 -158 -50 -22 -8 -94
-30 -160 -50 -304 -93 -365 -119 -505 -220 -63 -45 -187 -130 -275 -188 -88
-58 -187 -125 -220 -150 -215 -157 -267 -197 -323 -249 -34 -32 -67 -58 -72
-58 -5 0 -66 -43 -137 -96 -206 -154 -287 -190 -351 -155 -39 21 -46 47 -22
93 52 99 244 300 360 375 36 24 106 74 155 112 99 76 281 198 335 226 19 10
57 32 85 50 51 33 195 118 243 145 53 29 188 108 267 157 99 61 214 120 325
169 47 20 117 54 155 75 126 68 333 108 382 74z m-1597 -5350 c36 -19 50 -43
50 -87 0 -43 -31 -93 -71 -114 -49 -25 -138 -30 -177 -10 -18 9 -32 23 -32 31
0 21 57 129 77 147 53 46 105 58 153 33z m1474 -206 c21 -17 26 -29 26 -65 0
-61 -17 -89 -99 -162 -78 -69 -97 -98 -107 -162 -4 -23 -18 -55 -31 -70 -25
-30 -98 -60 -144 -60 -64 0 -92 103 -46 171 12 19 52 56 87 83 72 53 106 100
115 158 17 97 133 159 199 107z m-792 -620 c31 -23 46 -77 32 -118 -14 -40
-97 -86 -157 -86 -55 0 -72 -15 -83 -72 -7 -39 -21 -48 -88 -57 -125 -16 -177
44 -126 144 21 42 68 72 130 84 19 3 43 15 55 25 11 10 51 40 89 65 75 51 94
53 148 15z m-654 -764 c17 -14 33 -38 37 -54 7 -35 -9 -80 -32 -87 -10 -3 -39
-15 -65 -26 -39 -17 -51 -19 -79 -9 -17 6 -56 11 -85 11 -45 0 -55 -3 -65 -22
-7 -13 -17 -26 -22 -30 -18 -11 -224 -29 -375 -32 -58 -1 -66 1 -88 27 -64 75
14 144 174 153 48 3 103 12 122 19 20 8 86 15 155 18 104 3 127 7 175 29 72
34 110 35 148 3z"/>
<path d="M10150 30055 c-11 -13 -11 -19 3 -32 21 -21 49 -9 45 19 -4 28 -30
35 -48 13z"/>
<path d="M14325 25450 c-99 -5 -218 -16 -265 -24 -47 -8 -143 -25 -215 -36
-209 -34 -334 -74 -429 -139 -46 -32 -103 -113 -112 -161 -7 -31 32 -93 132
-210 110 -129 109 -247 -4 -438 -29 -49 -41 -83 -46 -127 -5 -39 -21 -89 -48
-143 -38 -78 -40 -87 -29 -121 23 -78 49 -103 171 -163 81 -40 121 -66 136
-88 52 -75 35 -157 -38 -190 -57 -26 -96 -25 -170 5 -34 14 -69 25 -79 25 -29
0 -41 -69 -37 -206 2 -100 6 -125 21 -142 25 -27 150 -78 254 -103 78 -19 107
-20 252 -15 143 6 167 9 193 27 21 15 59 25 141 34 112 14 233 45 274 71 12 8
57 28 100 45 43 17 107 53 142 80 100 77 210 211 256 310 29 65 48 171 35 203
-10 27 -56 59 -87 61 -36 1 -65 35 -59 67 9 44 35 77 95 117 82 56 168 97 299
143 130 45 192 74 192 88 0 12 -44 35 -96 49 -63 17 -94 46 -94 87 0 58 31 80
128 88 81 7 82 8 82 34 0 33 -28 92 -74 154 -33 45 -58 104 -70 159 -7 33
-103 155 -196 249 -41 41 -97 103 -124 137 -27 34 -56 65 -65 68 -27 11 -376
14 -566 5z"/>
<path d="M22545 25260 c-209 -5 -235 -7 -283 -27 -29 -13 -73 -23 -97 -23 -59
0 -237 -27 -298 -45 -55 -16 -206 -117 -258 -172 -25 -27 -41 -57 -53 -101
l-17 -63 33 -39 c18 -21 63 -73 100 -115 45 -51 70 -89 74 -112 15 -78 -12
-175 -105 -381 -70 -156 -91 -230 -91 -317 0 -84 9 -96 83 -114 54 -13 202
-89 259 -133 48 -37 61 -75 40 -117 -27 -56 -49 -64 -164 -59 -78 4 -116 11
-157 28 l-54 24 -20 -25 c-18 -22 -19 -34 -13 -178 4 -108 10 -161 20 -176 8
-12 45 -40 84 -64 90 -54 185 -72 387 -73 164 -1 297 18 375 54 64 29 138 48
187 48 33 0 50 7 76 30 21 18 46 30 63 30 43 0 137 64 239 163 50 48 118 113
152 146 71 68 83 96 90 224 7 107 -5 127 -74 127 -56 0 -83 26 -83 78 0 20 8
51 18 67 43 70 296 191 450 215 74 12 142 51 142 81 0 25 -44 57 -104 74 -75
22 -81 28 -77 77 2 26 55 49 117 51 l54 2 0 38 c0 46 -18 82 -60 122 -57 52
-110 143 -110 187 0 54 -10 69 -113 178 -50 52 -111 122 -138 155 -26 33 -71
79 -99 103 l-53 42 -146 -2 c-80 -1 -249 -5 -376 -8z"/>
<path d="M31550 25140 c-36 -3 -135 -4 -221 -2 -149 5 -160 4 -225 -21 -47
-18 -107 -29 -189 -37 -189 -17 -242 -33 -345 -101 -131 -85 -171 -129 -192
-208 l-17 -64 27 -32 c15 -18 57 -66 93 -106 83 -92 89 -105 89 -174 0 -52
-41 -203 -69 -251 -6 -11 -34 -75 -63 -144 -50 -119 -52 -130 -56 -232 -5
-121 -6 -118 84 -138 27 -6 69 -24 94 -39 25 -15 66 -37 92 -50 54 -26 118
-92 118 -121 0 -21 -26 -69 -45 -82 -41 -31 -208 -24 -288 11 -68 29 -82 19
-90 -63 -7 -78 9 -284 24 -302 5 -7 40 -31 77 -53 93 -56 189 -74 397 -73 172
0 331 24 383 58 34 22 116 44 168 44 31 0 51 8 79 30 23 18 49 30 68 30 40 0
122 56 213 146 40 39 89 84 111 100 112 82 142 136 153 274 4 52 5 101 2 108
-7 19 -40 34 -61 27 -23 -7 -70 11 -87 33 -28 36 -11 105 38 148 76 68 290
162 418 184 66 11 150 55 150 79 0 19 -63 61 -112 76 -61 18 -78 31 -78 60 0
42 42 63 135 68 35 2 40 5 43 28 5 41 -20 88 -80 154 -63 69 -84 105 -93 160
-3 22 -8 49 -10 60 -2 11 -49 67 -104 125 -56 57 -117 127 -137 155 -21 27
-62 71 -92 98 l-55 47 -141 -2 c-78 0 -170 -4 -206 -8z"/>
<path d="M38128 24318 c-28 -44 -38 -92 -38 -181 0 -77 7 -119 47 -269 62
-233 69 -234 106 -15 31 184 33 254 11 347 -27 119 -89 176 -126 118z"/>
<path d="M10572 23112 c-12 -4 -31 -21 -41 -38 -16 -27 -30 -34 -88 -47 -37
-9 -104 -19 -148 -23 l-80 -7 60 -15 c42 -11 118 -15 256 -16 223 -1 229 1
229 68 0 63 -29 86 -106 85 -32 -1 -69 -4 -82 -7z"/>
<path d="M17221 22741 c-30 -30 -36 -67 -17 -96 23 -34 59 -41 109 -20 93 39
127 47 236 61 164 20 165 27 5 48 -137 18 -123 17 -226 23 -78 4 -89 2 -107
-16z"/>
<path d="M14115 19933 c-46 -24 -66 -45 -86 -88 -58 -125 32 -265 169 -265 67
0 121 28 159 83 23 33 28 51 28 102 0 50 -5 69 -28 103 -15 23 -45 51 -67 62
-48 24 -132 26 -175 3z"/>
<path d="M33186 19939 c-122 -18 -239 -94 -295 -193 -83 -147 -69 -334 41
-535 43 -79 44 -75 -17 -108 -153 -82 -304 -268 -334 -411 -67 -319 152 -592
474 -592 162 0 330 70 480 200 l46 40 92 -81 c156 -136 290 -183 424 -150 141
36 258 189 279 366 l7 55 -62 0 c-54 0 -61 -2 -61 -20 0 -10 -9 -44 -20 -74
-60 -159 -195 -155 -348 8 -103 111 -102 104 -45 178 26 35 94 135 150 223
120 189 173 247 255 277 l58 21 0 58 0 59 -270 0 -270 0 0 -59 0 -59 39 -7
c96 -16 123 -133 61 -255 -43 -85 -134 -215 -150 -215 -6 0 -99 117 -209 260
l-198 260 61 38 c241 152 321 383 196 566 -81 117 -223 173 -384 150z m185
-155 c51 -35 79 -97 79 -174 0 -106 -14 -135 -111 -232 -49 -49 -92 -88 -96
-88 -11 0 -78 105 -104 165 -29 65 -49 141 -49 185 0 42 29 108 58 133 57 51
157 56 223 11z m-92 -1054 l231 -300 -56 -36 c-95 -61 -142 -77 -219 -77 -119
0 -230 64 -305 175 -100 149 -109 296 -28 416 27 40 120 122 138 122 4 0 112
-135 239 -300z"/>
<path d="M10955 19934 c-11 -2 -45 -9 -75 -15 -141 -29 -306 -117 -417 -222
-114 -108 -201 -252 -249 -414 -32 -109 -44 -311 -25 -429 69 -423 411 -729
841 -751 229 -12 364 34 544 184 55 46 77 59 84 50 15 -19 58 -109 71 -149
l13 -38 59 0 59 0 0 335 0 336 -61 -3 -61 -3 -17 -55 c-41 -129 -132 -274
-228 -360 -75 -67 -197 -127 -287 -140 -242 -37 -451 101 -541 359 -50 142
-58 202 -59 421 -1 214 6 267 53 403 77 223 252 357 466 357 260 0 492 -201
579 -502 l17 -58 61 0 60 0 -6 228 c-3 125 -9 271 -12 325 l-6 98 -55 -3 -56
-3 -22 -66 c-12 -36 -25 -71 -29 -77 -5 -8 -29 5 -73 39 -78 60 -153 99 -248
129 -56 18 -100 23 -215 26 -80 1 -154 1 -165 -2z"/>
<path d="M12390 19884 c-135 -29 -246 -53 -248 -54 -2 0 -2 -26 0 -57 l3 -58
63 -6 c51 -5 69 -12 90 -33 l27 -26 3 -653 c2 -478 -1 -659 -9 -680 -15 -36
-57 -57 -125 -64 l-54 -6 0 -58 0 -59 345 0 345 0 0 59 0 58 -46 6 c-54 6 -90
35 -105 86 -7 23 -9 124 -7 271 l3 236 35 69 c41 82 93 127 176 151 115 33
199 -16 222 -131 15 -76 16 -570 1 -613 -13 -39 -46 -61 -104 -69 l-45 -6 0
-58 0 -59 335 0 335 0 0 59 0 58 -50 6 c-120 14 -123 25 -126 395 -3 299 -9
355 -49 432 -55 105 -225 179 -386 167 -124 -10 -195 -45 -306 -151 l-43 -40
0 442 c0 415 -1 442 -17 441 -10 -1 -128 -25 -263 -55z"/>
<path d="M21953 19926 c-211 -51 -376 -240 -390 -446 -10 -142 36 -259 147
-370 88 -89 189 -153 425 -270 228 -113 288 -154 323 -223 109 -211 -81 -413
-344 -367 -188 32 -332 188 -415 448 l-23 72 -58 0 -58 0 0 -305 0 -306 57 3
58 3 16 60 c9 33 22 73 28 89 l12 30 57 -57 c72 -71 155 -120 257 -154 68 -23
98 -27 205 -27 106 -1 135 3 192 22 170 59 298 191 358 372 18 54 21 82 18
166 -3 89 -7 108 -36 167 -42 85 -126 170 -233 236 -46 29 -192 105 -325 171
-314 155 -366 202 -366 335 0 150 112 235 297 223 99 -7 188 -49 264 -126 55
-56 116 -159 141 -234 l12 -38 64 0 64 0 0 245 0 246 -62 -3 -61 -3 -19 -70
c-11 -38 -21 -71 -23 -74 -3 -2 -31 21 -64 52 -65 60 -155 109 -241 132 -66
18 -206 18 -277 1z"/>
<path d="M26885 19884 c-137 -29 -251 -54 -252 -54 -2 0 -3 -26 -3 -59 l0 -58
65 -5 c79 -7 111 -26 124 -75 6 -22 11 -146 11 -292 l0 -254 -45 42 c-94 86
-237 130 -388 117 -240 -20 -413 -157 -484 -383 -23 -76 -25 -94 -20 -201 5
-136 26 -207 89 -303 180 -279 551 -354 805 -163 17 13 34 24 37 24 2 0 8 -24
11 -53 10 -81 9 -80 111 -62 48 8 143 20 209 26 66 5 139 12 163 15 l42 5 0
60 0 59 -45 0 c-56 0 -107 20 -129 51 -14 21 -16 100 -16 821 0 754 -1 798
-17 797 -10 0 -130 -25 -268 -55z m-265 -796 c46 -14 115 -62 168 -116 l42
-44 0 -268 0 -269 -49 -50 c-164 -163 -387 -139 -481 52 -39 81 -51 147 -51
290 0 191 32 292 115 363 70 60 154 74 256 42z"/>
<path d="M23490 19528 c0 -33 -52 -139 -90 -182 -69 -78 -191 -136 -285 -136
l-45 0 0 -60 0 -59 98 -3 97 -3 6 -390 c3 -263 9 -402 17 -426 17 -51 83 -122
139 -150 42 -21 63 -24 163 -24 105 0 120 2 175 28 33 15 77 45 99 65 41 40
116 147 116 167 0 11 -98 61 -105 53 -1 -2 -15 -23 -30 -48 -39 -64 -73 -98
-112 -111 -49 -16 -90 -3 -111 34 -15 29 -17 75 -20 420 l-3 387 185 0 186 0
0 60 0 60 -185 0 -185 0 0 170 0 170 -55 0 c-50 0 -55 -2 -55 -22z"/>
<path d="M31087 19543 c-4 -3 -7 -13 -7 -22 0 -27 -56 -136 -90 -175 -69 -78
-191 -136 -285 -136 l-45 0 0 -60 0 -59 98 -3 97 -3 6 -390 c3 -263 9 -402 17
-426 17 -51 83 -122 139 -150 42 -21 63 -24 163 -24 105 0 120 2 175 28 33 15
77 45 99 65 41 40 116 147 116 167 0 11 -98 61 -105 53 -1 -2 -15 -23 -30 -48
-39 -64 -73 -98 -112 -111 -49 -16 -90 -3 -111 34 -15 29 -17 75 -20 420 l-3
387 185 0 186 0 0 60 0 60 -185 0 -185 0 0 170 0 170 -48 0 c-27 0 -52 -3 -55
-7z"/>
<path d="M14250 19225 c-58 -13 -176 -37 -262 -55 l-158 -33 0 -58 0 -58 58
-7 c67 -8 107 -26 124 -57 10 -16 13 -97 13 -322 0 -275 -2 -303 -18 -329 -23
-35 -73 -56 -132 -56 l-45 0 0 -60 0 -60 355 0 355 0 0 59 0 58 -51 6 c-60 7
-95 28 -112 65 -8 19 -13 159 -17 478 l-5 451 -105 -22z"/>
<path d="M14998 19192 l-248 -55 0 -57 0 -57 54 -7 c138 -16 138 -14 134 -396
l-3 -298 -24 -26 c-26 -28 -76 -46 -128 -46 l-33 0 0 -60 0 -60 345 0 345 0 0
59 0 58 -48 7 c-103 13 -115 51 -110 355 3 217 4 229 29 288 45 108 99 156
191 173 109 20 177 -14 203 -104 22 -75 22 -614 -1 -657 -17 -34 -66 -59 -114
-59 l-30 0 0 -60 0 -60 340 0 340 0 0 59 0 58 -51 6 c-57 7 -92 26 -111 59
-10 17 -14 109 -18 348 -5 324 -5 325 -31 380 -37 78 -81 125 -152 160 -79 38
-163 54 -252 46 -119 -9 -208 -53 -307 -152 l-48 -47 0 49 c0 65 -11 154 -19
153 -3 -1 -117 -26 -253 -57z"/>
<path d="M16995 19241 c-296 -49 -495 -261 -512 -546 -14 -228 97 -422 299
-523 109 -55 179 -72 318 -79 208 -9 356 42 469 162 33 36 61 69 61 74 0 4
-21 22 -46 41 l-46 33 -51 -51 c-62 -59 -113 -87 -204 -108 -88 -21 -179 -13
-249 21 -113 55 -172 170 -190 368 l-7 77 408 0 407 0 -6 48 c-21 156 -64 252
-150 338 -98 98 -204 142 -361 149 -49 2 -112 0 -140 -4z m206 -138 c70 -36
107 -100 118 -203 l7 -70 -243 0 -244 0 6 38 c29 172 113 261 246 262 41 0 70
-7 110 -27z"/>
<path d="M18314 19239 c-238 -30 -385 -151 -385 -316 -1 -129 33 -185 163
-273 61 -40 181 -82 417 -145 174 -47 219 -68 238 -112 24 -59 -2 -115 -72
-151 -43 -23 -65 -27 -163 -30 -221 -8 -365 49 -438 174 -26 44 -26 44 -81 44
l-56 0 7 -92 c3 -50 6 -124 6 -165 l0 -73 54 0 c51 0 56 2 76 36 16 26 27 33
39 28 121 -54 271 -79 425 -71 225 11 370 80 441 208 28 50 30 61 29 154 0 71
-5 111 -17 137 -54 119 -181 184 -556 283 -191 50 -251 76 -265 117 -12 35 9
85 44 103 95 49 355 44 483 -10 45 -19 113 -78 133 -117 13 -25 20 -28 64 -28
l50 0 0 150 0 150 -50 0 c-45 0 -51 -3 -65 -30 -9 -16 -19 -30 -23 -30 -4 0
-41 12 -82 26 -121 41 -268 53 -416 33z"/>
<path d="M19825 19243 c-295 -41 -505 -261 -522 -548 -14 -228 97 -423 299
-523 109 -55 178 -72 318 -79 208 -9 356 42 469 162 33 36 61 70 61 75 0 5
-21 23 -46 40 l-45 32 -53 -50 c-64 -60 -114 -87 -203 -108 -170 -40 -315 21
-387 163 -21 42 -43 140 -52 231 l-7 72 408 0 407 0 -6 48 c-21 157 -64 251
-152 340 -117 117 -299 171 -489 145z m195 -140 c70 -37 108 -102 119 -202 l7
-71 -243 0 -244 0 6 38 c21 124 72 208 149 243 62 28 142 25 206 -8z"/>
<path d="M28115 19243 c-191 -27 -373 -147 -453 -300 -152 -291 -51 -631 230
-771 109 -55 178 -72 318 -79 208 -9 356 42 469 162 33 36 61 69 61 74 0 4
-21 22 -46 41 l-46 33 -51 -51 c-62 -59 -113 -87 -204 -108 -88 -21 -179 -13
-249 21 -113 55 -172 170 -190 368 l-7 77 408 0 407 0 -7 63 c-28 242 -180
413 -411 462 -65 14 -162 17 -229 8z m195 -140 c69 -37 106 -99 118 -200 l8
-73 -243 0 -244 0 6 38 c21 124 72 208 149 243 62 28 142 25 206 -8z"/>
<path d="M29248 19192 l-248 -55 0 -57 0 -57 54 -7 c138 -16 138 -14 134 -396
l-3 -298 -24 -26 c-26 -28 -76 -46 -128 -46 l-33 0 0 -60 0 -60 345 0 345 0 0
59 0 58 -48 7 c-103 13 -115 51 -110 355 3 217 4 229 29 288 45 108 99 156
191 173 109 20 177 -14 203 -104 22 -75 22 -614 -1 -657 -17 -34 -66 -59 -114
-59 l-30 0 0 -60 0 -60 340 0 340 0 0 59 0 58 -52 6 c-63 8 -99 32 -115 78 -8
23 -12 125 -12 316 -1 159 -6 304 -12 331 -23 110 -102 198 -216 243 -74 29
-252 32 -321 6 -58 -22 -137 -76 -194 -133 l-48 -47 0 49 c0 65 -11 154 -19
153 -3 -1 -117 -26 -253 -57z"/>
<path d="M24137 19203 c-4 -3 -7 -29 -7 -58 l0 -51 65 -11 c122 -21 125 -29
125 -365 0 -377 16 -454 110 -542 77 -72 104 -80 260 -80 118 0 142 2 189 22
60 25 127 69 183 120 l38 34 0 -91 c0 -50 3 -91 8 -91 4 0 34 4 67 10 53 8
113 14 393 36 l73 6 -3 56 -3 57 -53 6 c-29 4 -65 12 -80 18 -57 24 -57 18
-60 494 l-3 437 -264 0 -265 0 0 -59 0 -59 58 -7 c66 -8 106 -28 121 -62 7
-15 11 -121 11 -294 l0 -270 -29 -42 c-42 -62 -122 -132 -165 -147 -52 -17
-140 -8 -174 17 -15 11 -36 35 -47 54 -19 32 -20 57 -25 449 l-5 415 -256 3
c-140 1 -258 -1 -262 -5z"/>
<path d="M25846 16983 c-143 -373 -275 -716 -294 -763 -69 -164 -141 -241
-239 -256 l-43 -6 0 -59 0 -59 305 0 305 0 0 60 0 60 -33 0 c-47 0 -131 27
-149 47 -38 43 -33 93 24 250 l30 83 291 0 292 0 48 -123 c45 -116 58 -185 39
-213 -14 -22 -54 -35 -123 -41 l-69 -6 0 -58 0 -59 420 0 420 0 0 60 c0 59 -1
60 -27 60 -91 0 -158 50 -208 154 -34 71 -63 144 -412 1036 -102 261 -189 483
-194 493 -8 13 -23 17 -67 17 l-58 0 -258 -677z m317 -200 c64 -164 117 -301
117 -305 0 -5 -106 -8 -235 -8 -129 0 -235 3 -235 7 0 14 224 603 229 603 4 0
59 -134 124 -297z"/>
<path d="M33275 17643 c-46 -24 -66 -45 -86 -88 -58 -125 32 -265 169 -265 67
0 121 28 159 83 23 33 28 51 28 102 0 50 -5 69 -28 103 -15 23 -45 51 -67 62
-48 24 -132 26 -175 3z"/>
<path d="M36795 17643 c-46 -24 -66 -45 -86 -88 -58 -125 32 -265 169 -265 67
0 121 28 159 83 23 33 28 51 28 102 0 50 -5 69 -28 103 -15 23 -45 51 -67 62
-48 24 -132 26 -175 3z"/>
<path d="M15043 17636 c-267 -65 -445 -344 -379 -592 21 -81 65 -153 136 -224
88 -89 189 -153 425 -270 228 -113 288 -154 323 -223 109 -211 -81 -413 -344
-367 -188 32 -332 188 -415 448 l-23 72 -58 0 -58 0 0 -305 0 -306 57 3 58 3
16 60 c9 33 22 73 28 89 l12 30 57 -57 c72 -71 155 -120 257 -154 68 -23 98
-27 205 -27 106 -1 135 3 192 22 170 59 298 191 358 372 18 54 21 82 18 166
-3 89 -7 108 -36 167 -42 85 -126 170 -233 236 -46 28 -192 105 -324 171 -132
65 -257 133 -278 150 -60 51 -91 112 -91 184 1 150 115 236 299 224 99 -7 188
-49 264 -126 55 -56 116 -159 141 -234 l12 -38 64 0 64 0 0 245 0 246 -62 -3
-61 -3 -19 -70 c-11 -38 -21 -71 -23 -74 -3 -2 -31 21 -64 52 -65 60 -155 109
-241 132 -66 18 -206 18 -277 1z"/>
<path d="M17790 17594 c-135 -29 -246 -53 -247 -54 -2 0 -3 -26 -3 -59 l0 -59
65 -4 c55 -3 70 -8 93 -31 l27 -27 3 -653 c2 -478 -1 -659 -9 -680 -15 -36
-57 -57 -125 -64 l-54 -6 0 -58 0 -59 345 0 345 0 0 59 0 58 -48 7 c-53 7 -83
31 -101 79 -18 46 -14 451 4 521 20 76 59 133 118 173 139 94 279 50 307 -96
14 -73 13 -569 -1 -609 -13 -39 -46 -61 -104 -69 l-45 -6 0 -58 0 -59 335 0
335 0 0 59 0 58 -50 6 c-119 14 -121 22 -130 417 -7 335 -11 361 -62 433 -30
43 -54 63 -110 92 -74 39 -171 58 -258 52 -121 -9 -183 -39 -298 -142 l-52
-47 0 441 c0 414 -1 441 -17 440 -10 -1 -128 -25 -263 -55z"/>
<path d="M21080 17599 c-129 -27 -245 -51 -257 -54 -21 -5 -23 -11 -23 -65 l0
-60 53 -1 c69 0 115 -18 141 -52 21 -28 21 -34 21 -676 0 -610 -1 -648 -18
-675 -24 -36 -73 -56 -142 -56 l-55 0 0 -60 0 -60 375 0 375 0 0 59 0 58 -66
6 c-76 6 -108 28 -124 86 -6 23 -10 331 -10 819 0 738 -1 782 -17 781 -10 0
-124 -23 -253 -50z"/>
<path d="M35847 17253 c-4 -3 -7 -13 -7 -22 0 -27 -56 -136 -90 -175 -69 -78
-191 -136 -285 -136 l-45 0 0 -60 0 -59 98 -3 97 -3 5 -395 c6 -438 5 -431 74
-508 63 -69 112 -87 246 -87 105 0 120 2 175 28 33 15 77 45 99 65 41 40 116
147 116 167 0 11 -98 61 -105 53 -1 -2 -15 -23 -30 -48 -39 -64 -73 -98 -112
-111 -49 -16 -90 -3 -111 34 -15 29 -17 75 -20 420 l-3 387 185 0 186 0 0 60
0 60 -185 0 -185 0 0 170 0 170 -48 0 c-27 0 -52 -3 -55 -7z"/>
<path d="M16762 16949 c-474 -79 -703 -597 -414 -938 50 -59 150 -129 229
-160 174 -69 408 -65 551 8 56 29 159 126 199 188 18 29 33 54 33 56 0 2 -23
14 -51 28 l-52 24 -21 -30 c-12 -17 -48 -58 -81 -92 -74 -75 -138 -99 -246
-90 -207 17 -329 197 -329 484 1 205 55 321 179 383 85 43 220 34 262 -16 7
-9 26 -56 43 -106 37 -109 60 -132 135 -132 156 0 192 197 54 301 -108 81
-319 120 -491 92z"/>
<path d="M19805 16951 c-177 -29 -343 -118 -430 -232 -129 -170 -136 -461 -15
-650 70 -108 209 -204 355 -244 95 -26 256 -31 354 -11 107 22 170 47 253 102
84 56 139 119 182 209 42 86 56 152 56 258 0 269 -169 484 -435 552 -71 18
-250 27 -320 16z m220 -127 c68 -24 117 -78 145 -161 19 -57 24 -95 28 -233 8
-303 -35 -433 -163 -491 -76 -35 -233 -19 -290 29 -88 74 -133 305 -107 547
16 140 35 198 84 251 65 70 194 95 303 58z"/>
<path d="M22222 16950 c-186 -26 -307 -96 -358 -205 -58 -122 -4 -209 129
-208 90 1 113 26 147 158 25 99 86 144 195 145 84 0 128 -15 164 -55 36 -41
51 -90 51 -165 l0 -56 -137 -38 c-425 -118 -603 -255 -603 -463 0 -134 93
-221 259 -245 65 -10 92 -9 161 5 90 17 206 68 282 122 57 42 64 43 72 10 9
-34 71 -94 122 -116 64 -29 148 -34 224 -15 118 30 180 92 206 203 22 93 21
95 -33 91 -45 -3 -48 -5 -54 -36 -10 -47 -45 -82 -84 -82 -78 0 -84 28 -84
402 -1 258 -3 281 -22 334 -40 107 -126 174 -259 203 -72 16 -298 22 -378 11z
m328 -682 l0 -163 -53 -36 c-74 -52 -121 -69 -189 -69 -71 0 -111 20 -133 66
-44 93 21 216 148 281 57 28 195 82 215 83 9 0 12 -39 12 -162z"/>
<path d="M23503 16902 l-253 -56 0 -57 0 -56 71 -7 c84 -9 113 -20 136 -55 16
-23 18 -58 21 -308 2 -182 -1 -296 -8 -322 -15 -57 -45 -73 -141 -79 l-79 -5
0 -58 0 -59 410 0 410 0 0 60 0 60 -70 0 c-90 0 -144 21 -162 63 -9 24 -13 90
-13 252 0 205 2 224 23 276 46 115 105 170 183 171 35 0 47 -6 103 -60 44 -42
73 -62 99 -67 188 -36 252 231 79 332 -41 25 -57 28 -127 27 -68 0 -89 -4
-139 -30 -76 -37 -154 -109 -206 -187 -22 -34 -40 -60 -40 -57 0 35 -32 266
-38 271 -4 3 -121 -19 -259 -49z"/>
<path d="M27664 16950 c-241 -34 -385 -152 -385 -317 -1 -129 33 -185 163
-273 61 -40 181 -82 418 -145 172 -46 218 -67 236 -112 11 -26 12 -43 4 -73
-12 -46 -44 -71 -118 -95 -77 -25 -293 -17 -375 14 -74 29 -149 89 -182 146
-27 45 -27 45 -82 45 l-56 0 7 -92 c3 -50 6 -124 6 -165 l0 -73 54 0 c51 0 56
2 76 35 12 19 23 35 25 35 2 0 24 -9 50 -20 26 -11 92 -29 148 -41 83 -17 125
-20 227 -16 237 10 382 76 455 208 27 49 30 62 30 149 0 228 -96 299 -574 425
-191 50 -251 76 -265 117 -12 35 9 85 44 103 103 53 376 43 498 -19 51 -26
122 -96 122 -121 0 -12 13 -15 55 -15 l55 0 0 150 0 150 -50 0 c-45 0 -51 -3
-66 -31 -11 -21 -21 -29 -32 -25 -145 48 -194 57 -307 61 -66 2 -148 0 -181
-5z"/>
<path d="M29044 16949 c-245 -31 -388 -153 -386 -329 1 -112 39 -176 147 -248
79 -53 172 -87 415 -152 85 -22 175 -50 199 -62 56 -27 77 -70 61 -128 -20
-75 -106 -110 -268 -110 -207 0 -329 53 -407 174 l-32 51 -53 -4 -53 -3 7 -91
c3 -49 6 -123 6 -164 l0 -73 54 0 c51 0 56 2 76 36 16 26 27 33 39 28 121 -54
271 -79 425 -71 225 11 370 80 441 208 27 49 30 62 30 149 0 228 -96 299 -574
425 -191 50 -251 76 -265 117 -12 35 6 79 43 101 87 51 353 47 484 -8 45 -19
113 -78 133 -117 13 -25 20 -28 64 -28 l50 0 0 150 0 150 -50 0 c-45 0 -51 -3
-65 -30 -9 -16 -19 -30 -23 -30 -4 0 -41 12 -82 26 -121 41 -268 53 -416 33z"/>
<path d="M30565 16951 c-177 -29 -343 -118 -430 -232 -129 -170 -136 -461 -15
-650 70 -108 209 -204 355 -244 95 -26 256 -31 354 -11 107 22 170 47 253 102
84 56 139 119 182 209 42 86 56 152 56 258 0 269 -172 487 -433 551 -79 20
-249 29 -322 17z m220 -127 c68 -24 117 -78 145 -161 19 -57 24 -95 28 -233 8
-303 -35 -433 -163 -491 -76 -35 -233 -19 -290 29 -88 74 -133 305 -107 547
16 140 35 198 84 251 65 70 194 95 303 58z"/>
<path d="M32161 16949 c-302 -50 -519 -279 -538 -564 -18 -279 173 -506 480
-569 145 -30 316 -13 425 43 56 29 159 126 199 188 18 29 33 54 33 56 0 2 -23
14 -51 28 l-52 24 -21 -30 c-12 -17 -48 -58 -81 -92 -74 -75 -138 -99 -246
-90 -207 17 -329 197 -329 484 1 205 55 321 179 383 85 43 220 34 262 -16 7
-9 26 -56 43 -106 37 -109 59 -130 134 -131 157 -2 193 195 55 300 -108 81
-319 120 -492 92z"/>
<path d="M33355 16925 c-82 -18 -198 -43 -257 -55 l-108 -23 0 -58 0 -58 58
-7 c67 -8 107 -26 124 -57 10 -16 13 -97 13 -322 0 -275 -2 -303 -18 -329 -23
-35 -73 -56 -132 -56 l-45 0 0 -60 0 -60 355 0 355 0 0 59 0 58 -52 6 c-68 8
-100 33 -115 88 -8 30 -12 181 -12 477 -1 237 -4 431 -8 431 -5 -1 -75 -16
-158 -34z"/>
<path d="M34372 16950 c-186 -26 -307 -96 -358 -205 -58 -122 -4 -209 129
-208 90 1 113 26 147 158 25 99 86 144 195 145 84 0 128 -15 164 -55 36 -41
51 -90 51 -165 l0 -56 -137 -38 c-425 -118 -603 -255 -603 -463 0 -134 93
-221 259 -245 65 -10 92 -9 161 5 90 17 206 68 282 122 26 19 51 35 56 35 4
-1 16 -20 27 -43 68 -139 325 -169 462 -53 41 34 80 116 89 184 l7 53 -48 -3
c-45 -3 -48 -5 -60 -41 -18 -54 -42 -77 -80 -77 -77 0 -83 27 -84 412 -1 247
-3 272 -22 324 -40 107 -126 174 -259 203 -72 16 -298 22 -378 11z m328 -682
l0 -163 -53 -36 c-74 -52 -121 -69 -189 -69 -71 0 -111 20 -133 66 -44 93 21
216 148 281 57 28 195 82 215 83 9 0 12 -39 12 -162z"/>
<path d="M36930 16935 c-58 -13 -176 -37 -262 -55 l-158 -33 0 -57 0 -58 57
-7 c68 -8 107 -27 125 -58 10 -16 13 -97 13 -322 0 -275 -2 -303 -18 -329 -23
-35 -73 -56 -132 -56 l-45 0 0 -60 0 -60 355 0 355 0 0 59 0 58 -51 6 c-60 7
-95 28 -112 65 -8 19 -13 159 -17 478 l-5 451 -105 -22z"/>
<path d="M38015 16951 c-177 -29 -343 -118 -430 -232 -129 -169 -136 -461 -15
-649 71 -111 207 -205 355 -245 95 -26 256 -31 354 -11 107 22 170 47 253 102
84 56 139 119 182 209 42 86 56 152 56 258 0 269 -169 484 -435 552 -71 18
-250 27 -320 16z m220 -127 c68 -24 117 -78 145 -161 19 -57 24 -95 28 -233 8
-303 -35 -433 -163 -491 -76 -35 -233 -19 -290 29 -88 74 -133 305 -107 547
16 140 35 198 84 251 65 70 194 95 303 58z"/>
<path d="M39278 16902 l-248 -55 0 -57 0 -57 54 -7 c138 -16 138 -14 134 -394
-3 -320 -5 -328 -57 -352 -15 -7 -50 -14 -78 -17 l-53 -6 0 -58 0 -59 345 0
345 0 0 59 0 58 -49 7 c-62 8 -98 42 -106 100 -4 23 -5 141 -3 262 3 209 5
222 29 281 45 108 99 156 191 173 109 20 177 -14 203 -104 22 -75 22 -614 -1
-657 -17 -34 -66 -59 -114 -59 l-30 0 0 -60 0 -60 340 0 340 0 0 59 0 58 -51
6 c-57 7 -92 26 -111 59 -10 17 -14 109 -18 348 -5 324 -5 325 -31 380 -37 78
-81 125 -152 160 -79 38 -163 54 -252 46 -119 -9 -208 -53 -307 -152 l-48 -47
0 49 c0 65 -11 154 -19 153 -3 -1 -117 -26 -253 -57z"/>
<path d="M7799 31687 c-89 -75 -187 -176 -229 -237 -13 -19 -40 -54 -61 -76
-48 -54 -89 -119 -89 -142 0 -17 36 -42 61 -42 15 0 121 109 194 199 33 40 76
92 95 116 19 23 52 57 72 74 54 47 80 93 76 138 -2 24 -8 39 -18 40 -8 1 -54
-30 -101 -70z"/>
</g>
</svg>
